<svg width="27" height="26" viewBox="0 0 27 26" fill="none" xmlns="http://www.w3.org/2000/svg">
<path d="M13.6122 25.3336C20.8249 25.3336 26.6719 19.6926 26.6719 12.7341C26.6719 5.77555 20.8249 0.134552 13.6122 0.134552C6.39958 0.134552 0.552567 5.77555 0.552567 12.7341C0.552567 19.6926 6.39958 25.3336 13.6122 25.3336Z" fill="#FFDD9A"/>
<path d="M10.0034 16.026H17.2451" stroke="#444444" stroke-width="1.84489" stroke-miterlimit="10" stroke-linecap="round" stroke-linejoin="round"/>
<path d="M8.23584 12.0946C8.8595 12.0946 9.36507 11.6069 9.36507 11.0052C9.36507 10.4035 8.8595 9.9158 8.23584 9.9158C7.61219 9.9158 7.10661 10.4035 7.10661 11.0052C7.10661 11.6069 7.61219 12.0946 8.23584 12.0946Z" fill="#444444"/>
<path d="M18.4725 12.0947C19.0961 12.0947 19.6017 11.6069 19.6017 11.0052C19.6017 10.4036 19.0961 9.9158 18.4725 9.9158C17.8488 9.9158 17.3432 10.4036 17.3432 11.0052C17.3432 11.6069 17.8488 12.0947 18.4725 12.0947Z" fill="#444444"/>
</svg>
