<svg width="94" height="111" viewBox="0 0 94 111" fill="none" xmlns="http://www.w3.org/2000/svg">
<g clip-path="url(#clip0)">
<path d="M46.2494 82.1626C46.2494 82.1626 98.749 67.9489 84.4406 54.2766C70.7445 41.2459 113.888 43.8959 103.052 18.5256C94.0413 -2.49932 77.2918 9.24022 72.2526 28.2432C65.3769 53.8178 46.6788 10.3379 41.5077 51.8633C37.5138 84.3568 46.2494 82.1626 46.2494 82.1626Z" fill="#2835AC" fill-opacity="0.35"/>
<path d="M47.7137 93.9294C50.0777 83.847 53.5471 74.0544 58.282 64.8749C63.0989 55.4537 69.3367 46.6772 77.0963 39.4707C81.7384 35.1505 86.8877 31.3535 92.5491 28.3716C93.1974 28.0514 92.9322 27.6097 92.2839 27.9299C82.3948 33.2166 73.9184 40.7617 67.1143 49.6166C60.6297 58.0197 55.6073 67.496 51.8639 77.362C49.7528 82.9086 48.0575 88.6367 46.6727 94.4281C46.5907 94.6698 47.6683 94.3078 47.7137 93.9294Z" fill="#2835AC" fill-opacity="0.54"/>
<path d="M85.8533 20.6435C83.6045 25.1282 82.0136 29.8761 81.7519 34.9271C81.72 35.0821 81.9255 35.0271 81.994 35.0087C86.3961 33.9024 90.7798 32.7278 95.072 31.2115C95.2774 31.1564 95.6701 30.978 95.7522 30.7363C95.7657 30.5129 95.6287 30.5496 95.4233 30.6046C91.1996 32.1026 86.9528 33.2405 82.6193 34.3284C82.7061 34.3784 82.7746 34.3601 82.8614 34.4101C83.0729 29.4458 84.6638 24.6979 86.9309 20.2815C86.9947 19.9715 85.9353 20.4018 85.8533 20.6435Z" fill="#2835AC" fill-opacity="0.54"/>
<path d="M35.2454 93.974L35.3546 93.2856C44.2571 95.002 53.7197 94.1512 62.5462 91.2002C60.8594 81.6172 71.3121 79.2559 71.3121 79.2559C72.2569 85.5218 67.8061 88.9118 64.8886 90.3528C68.2903 89.0751 71.6005 87.4556 74.7506 85.5129C69.991 77.3392 78.6831 71.421 78.6831 71.421C81.9934 77.1996 78.4798 82.1697 76.3165 84.5073C78.9369 82.7797 81.5025 80.847 83.7892 78.6961C78.5827 71.5944 86.0094 65.0631 86.0094 65.0631C89.1908 69.2647 87.9694 73.4741 86.4321 76.23C87.532 75.1295 88.5452 73.9791 89.5401 72.7603C88.9406 70.7967 87.6939 63.9525 97.0962 61.5064C97.0962 61.5064 99.4313 70.7692 90.0474 73.2836C88.765 74.7992 87.3957 76.2648 86.0082 77.662C90.929 73.5601 97.1887 77.7426 97.1887 77.7426C92.2876 84.11 84.3013 79.5111 84.3013 79.5111C84.502 79.1643 84.7896 78.8675 85.0269 78.6574C83.1464 80.4066 81.1105 82.124 79.0197 83.6365C83.9148 82.1783 88.5027 86.1496 88.5027 86.1496C82.8841 91.757 75.7699 86.8512 75.0388 86.3146C72.1946 88.0289 69.2269 89.5566 66.1174 90.8293C71.9586 90.4361 75.2235 96.5931 75.2235 96.5931C68.3929 99.5953 63.6666 93.4637 62.7157 92.107C54.3002 94.9479 45.372 95.8752 36.7849 94.5138C36.3326 94.1955 35.7982 94.1189 35.2454 93.974Z" fill="#2835AC"/>
<path d="M35.8445 66.3456C52.6129 48.3749 50.9047 19.5335 50.9 19.2418L50.2469 19.2703C50.2516 19.562 51.9916 48.2484 35.2552 66.064C35.4288 66.164 35.6709 66.2456 35.8445 66.3456Z" fill="#2835AC"/>
<path d="M74.1716 15.1303C71.7732 35.7696 60.9843 48.1095 52.4434 54.8661C48.8098 57.7442 45.267 59.8654 42.2308 61.4115C42.4228 61.5798 42.5462 61.7664 42.7381 61.9348C45.7058 60.4071 49.2486 58.2858 52.832 55.4945C61.4916 48.6328 72.3809 36.1195 74.8613 15.2385L74.1716 15.1303Z" fill="#2835AC"/>
<path d="M50.1081 30.8074C50.1081 30.8074 41.4903 24.4 50.4225 15.2679C50.4225 15.2679 58.1505 23.0124 50.1081 30.8074Z" fill="#2835AC"/>
<path d="M73.9465 20.318C73.9465 20.318 66.384 14.2871 74.6136 6.36861C74.6821 6.35026 81.3684 13.4949 73.9465 20.318Z" fill="#2835AC"/>
<path d="M48.8936 38.604C48.8936 38.604 49.5634 29.0488 41.4008 27.3538C41.4008 27.3538 40.046 37.0926 48.8936 38.604Z" fill="#2835AC"/>
<path d="M49.1173 38.6173C49.1173 38.6173 57.7071 36.9749 57.273 29.327C57.2228 29.4137 48.3495 30.5461 49.1173 38.6173Z" fill="#2835AC"/>
<path d="M72.0105 28.1615C72.0105 28.1615 74.8451 18.4658 66.7042 14.9338C66.6859 14.8654 63.2164 24.658 72.0105 28.1615Z" fill="#2835AC"/>
<path d="M72.1841 28.2615C72.1841 28.2615 81.4053 28.4276 82.5831 20.4942C82.5831 20.4942 73.1971 19.7131 72.1841 28.2615Z" fill="#2835AC"/>
<path d="M67.0525 38.4263C67.0525 38.4263 71.2801 28.7235 63.344 24.0379C63.344 24.0379 58.4266 33.6325 67.0525 38.4263Z" fill="#2835AC"/>
<path d="M67.2444 38.5946C67.2444 38.5946 76.7267 40.0092 79.0555 31.9871C79.0372 31.9188 69.4768 29.9391 67.2444 38.5946Z" fill="#2835AC"/>
<path d="M58.9389 49.2435C58.9389 49.2435 66.333 41.7687 60.7108 34.4855C60.6925 34.4171 52.6406 41.6287 58.9389 49.2435Z" fill="#2835AC"/>
<path d="M59.0624 49.4302C59.0624 49.4302 67.3776 54.1607 72.4794 47.4466C72.4794 47.4466 64.2232 42.1143 59.0624 49.4302Z" fill="#2835AC"/>
<path d="M73.9513 63.8992C73.9513 63.8992 70.8589 70.4412 62.9567 68.8961C62.9567 68.8961 48.0651 100.721 19.4086 97.3386" stroke="#2835AC" stroke-width="0.8233" stroke-miterlimit="10"/>
<path d="M76.972 66.679C76.972 66.679 72.7925 72.9995 62.9751 68.9645C62.9751 68.9645 66.7471 68.2468 70.1915 62.1965" stroke="#2835AC" stroke-width="0.8233" stroke-miterlimit="10"/>
<path d="M66.4682 60.6304L62.9567 68.8961C62.9567 68.8961 59.932 66.9232 60.4622 60.4085" stroke="#2835AC" stroke-width="0.8233" stroke-miterlimit="10"/>
<path d="M56.8449 60.0594C56.8449 60.0594 56.4659 67.4125 62.9751 68.9645" stroke="#2835AC" stroke-width="0.8233" stroke-miterlimit="10"/>
<path d="M76.7488 67.7642C76.2646 67.601 75.9676 67.3143 75.739 67.0093C75.4922 66.636 75.4691 66.2759 75.6013 65.9475C75.7336 65.6191 75.9526 65.3406 76.3636 65.2305C76.7061 65.1387 77.1537 65.1653 77.5511 65.2786C77.8617 65.3418 78.0536 65.5101 78.3324 65.7284C78.5426 65.9651 78.666 66.1518 78.8078 66.4068C78.881 66.6802 78.8675 66.9035 78.8539 67.1269C78.7217 67.4553 78.4843 67.6654 78.0916 67.8439C77.6122 67.9724 77.1646 67.9458 76.7488 67.7642Z" fill="white"/>
<path d="M74.0978 64.4459C73.6136 64.2827 73.3165 63.996 73.088 63.691C72.8411 63.3177 72.8181 62.9576 72.9503 62.6292C73.0825 62.3008 73.3016 62.0223 73.7126 61.9122C74.055 61.8204 74.5026 61.847 74.9001 61.9603C75.2107 62.0235 75.4026 62.1918 75.6813 62.4101C75.8916 62.6468 76.015 62.8335 76.1567 63.0885C76.23 63.3619 76.2164 63.5852 76.2029 63.8086C76.0706 64.137 75.8333 64.3471 75.4406 64.5256C74.9611 64.6541 74.582 64.6091 74.0978 64.4459Z" fill="white"/>
<path d="M69.4801 63.9253C68.9959 63.762 68.6988 63.4754 68.4703 63.1704C68.2234 62.797 68.2003 62.437 68.3326 62.1086C68.4648 61.7801 68.6839 61.5017 69.0948 61.3916C69.4373 61.2998 69.8849 61.3264 70.2823 61.4396C70.5929 61.5029 70.7849 61.6712 71.0636 61.8895C71.2738 62.1262 71.3973 62.3128 71.539 62.5679C71.6123 62.8412 71.5987 63.0646 71.5851 63.288C71.4529 63.6164 71.2155 63.8265 70.8229 64.005C70.4119 64.1151 69.9643 64.0885 69.4801 63.9253Z" fill="white"/>
<path d="M56.402 60.3245C55.9178 60.1613 55.6207 59.8746 55.3922 59.5696C55.1453 59.1963 55.1223 58.8362 55.2545 58.5078C55.3867 58.1794 55.6058 57.9009 56.0168 57.7908C56.3592 57.699 56.8068 57.7256 57.2043 57.8389C57.5149 57.9021 57.7068 58.0704 57.9855 58.2888C58.1958 58.5254 58.3192 58.7121 58.4609 58.9671C58.5342 59.2405 58.5206 59.4638 58.5071 59.6872C58.3748 60.0156 58.1375 60.2257 57.7448 60.4042C57.2653 60.5327 56.8862 60.4877 56.402 60.3245Z" fill="white"/>
<path d="M65.9711 61.7891C65.4869 61.6259 65.1899 61.3392 64.9613 61.0342C64.7145 60.6609 64.6914 60.3008 64.8236 59.9724C64.9559 59.644 65.1749 59.3655 65.5859 59.2554C65.9284 59.1636 66.376 59.1902 66.7734 59.3035C67.084 59.3667 67.2759 59.535 67.5546 59.7534C67.7649 59.99 67.8883 60.1767 68.0301 60.4317C68.1033 60.7051 68.0897 60.9284 68.0762 61.1518C67.9439 61.4802 67.7066 61.6903 67.3139 61.8688C66.8161 61.9289 66.4554 61.9523 65.9711 61.7891Z" fill="white"/>
<path d="M60.0385 61.8406C59.6227 61.659 59.2755 61.459 59.0286 61.0857C58.7818 60.7123 58.7587 60.3523 58.8909 60.0238C59.0232 59.6954 59.2422 59.417 59.6532 59.3069C59.9957 59.2151 60.4433 59.2417 60.8407 59.3549C61.1513 59.4182 61.3432 59.5865 61.622 59.8048C61.8322 60.0415 61.9556 60.2281 62.0974 60.4831C62.1706 60.7565 62.1571 60.9799 62.1435 61.2033C62.0113 61.5317 61.7739 61.7418 61.3813 61.9202C60.9018 62.0487 60.5227 62.0038 60.0385 61.8406Z" fill="white"/>
</g>
<defs>
<clipPath id="clip0">
<rect width="101.617" height="87.2372" fill="white" transform="translate(0.227234 26.3004) rotate(-15)"/>
</clipPath>
</defs>
</svg>
