<svg width="18" height="17" viewBox="0 0 18 17" fill="none" xmlns="http://www.w3.org/2000/svg">
<g clip-path="url(#clip0)">
<path d="M12.3533 15.8246L11.6193 12.1789C11.4584 11.3787 10.8684 11.05 10.5333 10.9238C10.5198 10.9172 8.41154 10.3029 8.39813 10.2996L7.73782 9.85801V9.44297C8.72661 8.92832 9.44055 7.93555 9.51765 6.69375C9.52435 6.5709 9.6048 6.46133 9.72211 6.42148C10.4092 6.18574 10.7109 5.44863 10.2919 4.8875C10.2919 4.86758 10.2919 4.08066 10.2919 4.06074C10.2919 1.82285 8.45176 0 6.19262 0C3.93348 0 2.08996 1.82285 2.08996 4.06074C2.08996 4.08066 2.08996 4.86758 2.08996 4.8875C1.68774 5.42539 1.94583 6.11934 2.56928 6.38828C2.74022 6.46133 2.85754 6.62402 2.8743 6.80664C2.98491 7.98203 3.67203 8.93164 4.63736 9.43965V9.86465L3.99381 10.2963C3.97705 10.2996 1.85533 10.9205 1.84193 10.9271C1.50674 11.05 0.916819 11.3787 0.75593 12.1822L0.0185251 15.8246C-0.0619192 16.223 0.0553953 17 1.03413 17C2.35476 17 10.188 17 11.3377 17C11.6963 17 11.9712 16.8938 12.1522 16.6879C12.3533 16.4588 12.4103 16.0969 12.3533 15.8246Z" fill="#FA941B"/>
<path d="M1.74631 15.8246L2.48036 11.5646C2.58092 11.0666 2.84571 10.7512 3.11386 10.5519C2.52394 10.7246 1.85022 10.9238 1.84016 10.9238C1.50498 11.0467 0.915054 11.3754 0.754165 12.1789L0.020112 15.8246C-0.0603322 16.223 0.0569822 17 1.03572 17C1.33068 17 1.95748 17 2.76192 17C1.78653 17 1.66587 16.223 1.74631 15.8246Z" fill="#EF8A11"/>
<path d="M3.88807 6.09609C3.58641 5.76406 3.52607 5.28262 3.82104 4.8875C3.82104 4.86758 3.82104 4.08066 3.82104 4.06074C3.82104 2.11504 5.2087 0.484766 7.05892 0.0896484C6.77736 0.0298828 6.4891 0 6.19414 0C3.93165 0 2.09148 1.82285 2.09148 4.06074C2.09148 4.08066 2.09148 4.86758 2.09148 4.8875C1.68926 5.42539 1.94736 6.11934 2.5708 6.38828C2.74174 6.46133 2.85906 6.62402 2.87582 6.80664C2.98643 7.98203 3.67355 8.93164 4.63888 9.43965C4.15622 8.44355 4.12605 7.55371 4.18303 6.9959C4.2132 6.66719 4.10929 6.3418 3.88807 6.09609Z" fill="#EF8A11"/>
</g>
<g clip-path="url(#clip1)">
<path d="M17.9783 15.8246L17.2443 12.1789C17.0834 11.3787 16.4934 11.05 16.1583 10.9238C16.1448 10.9172 14.0365 10.3029 14.0231 10.2996L13.3628 9.85801V9.44297C14.3516 8.92832 15.0656 7.93555 15.1426 6.69375C15.1494 6.5709 15.2298 6.46133 15.3471 6.42148C16.0342 6.18574 16.3359 5.44863 15.9169 4.8875C15.9169 4.86758 15.9169 4.08066 15.9169 4.06074C15.9169 1.82285 14.0768 0 11.8176 0C9.55848 0 7.71496 1.82285 7.71496 4.06074C7.71496 4.08066 7.71496 4.86758 7.71496 4.8875C7.31274 5.42539 7.57083 6.11934 8.19428 6.38828C8.36522 6.46133 8.48254 6.62402 8.4993 6.80664C8.60991 7.98203 9.29703 8.93164 10.2624 9.43965V9.86465L9.61881 10.2963C9.60205 10.2996 7.48033 10.9205 7.46693 10.9271C7.13174 11.05 6.54182 11.3787 6.38093 12.1822L5.64353 15.8246C5.56308 16.223 5.6804 17 6.65913 17C7.97976 17 15.813 17 16.9627 17C17.3213 17 17.5962 16.8937 17.7772 16.6879C17.9783 16.4588 18.0353 16.0969 17.9783 15.8246Z" fill="#2835AC"/>
<path d="M7.37131 15.8246L8.10536 11.5646C8.20592 11.0666 8.47071 10.7512 8.73886 10.5519C8.14894 10.7246 7.47522 10.9238 7.46516 10.9238C7.12998 11.0467 6.54005 11.3754 6.37917 12.1789L5.64511 15.8246C5.56467 16.223 5.68198 17 6.66072 17C6.95568 17 7.58248 17 8.38692 17C7.41153 17 7.29087 16.223 7.37131 15.8246Z" fill="#131E87"/>
<path d="M9.51307 6.09609C9.21141 5.76406 9.15107 5.28262 9.44604 4.8875C9.44604 4.86758 9.44604 4.08066 9.44604 4.06074C9.44604 2.11504 10.8337 0.484766 12.6839 0.0896484C12.4024 0.0298828 12.1141 0 11.8191 0C9.55665 0 7.71648 1.82285 7.71648 4.06074C7.71648 4.08066 7.71648 4.86758 7.71648 4.8875C7.31426 5.42539 7.57236 6.11934 8.1958 6.38828C8.36674 6.46133 8.48406 6.62402 8.50082 6.80664C8.61143 7.98203 9.29855 8.93164 10.2639 9.43965C9.78122 8.44355 9.75105 7.55371 9.80803 6.9959C9.8382 6.66719 9.73429 6.3418 9.51307 6.09609Z" fill="#131E87"/>
</g>
<defs>
<clipPath id="clip0">
<rect width="12.375" height="17" fill="white"/>
</clipPath>
<clipPath id="clip1">
<rect width="12.375" height="17" fill="white" transform="translate(5.625)"/>
</clipPath>
</defs>
</svg>
