<svg width="19" height="17" viewBox="0 0 19 17" fill="none" xmlns="http://www.w3.org/2000/svg">
<g clip-path="url(#clip0)">
<path d="M12.6343 15.8246L11.9002 12.1789C11.7394 11.3787 11.1494 11.05 10.8142 10.9238C10.8008 10.9172 8.69253 10.3029 8.67912 10.2996L8.01881 9.85801V9.44297C9.0076 8.92832 9.72155 7.93555 9.79864 6.69375C9.80534 6.5709 9.88579 6.46133 10.0031 6.42148C10.6902 6.18574 10.9919 5.44863 10.5729 4.8875C10.5729 4.86758 10.5729 4.08066 10.5729 4.06074C10.5729 1.82285 8.73275 0 6.47361 0C4.21447 0 2.37095 1.82285 2.37095 4.06074C2.37095 4.08066 2.37095 4.86758 2.37095 4.8875C1.96873 5.42539 2.22683 6.11934 2.85027 6.38828C3.02121 6.46133 3.13853 6.62402 3.15529 6.80664C3.2659 7.98203 3.95302 8.93164 4.91835 9.43965V9.86465L4.2748 10.2963C4.25804 10.2996 2.13633 10.9205 2.12292 10.9271C1.78773 11.05 1.19781 11.3787 1.03692 12.1822L0.299516 15.8246C0.219071 16.223 0.336386 17 1.31512 17C2.63575 17 10.469 17 11.6187 17C11.9773 17 12.2522 16.8938 12.4332 16.6879C12.6343 16.4588 12.6913 16.0969 12.6343 15.8246Z" fill="#FA941B"/>
<path d="M2.0273 15.8246L2.76135 11.5646C2.86191 11.0666 3.12671 10.7512 3.39485 10.5519C2.80493 10.7246 2.13121 10.9238 2.12115 10.9238C1.78597 11.0467 1.19604 11.3754 1.03516 12.1789L0.301103 15.8246C0.220658 16.223 0.337973 17 1.31671 17C1.61167 17 2.23847 17 3.04291 17C2.06752 17 1.94686 16.223 2.0273 15.8246Z" fill="#EF8A11"/>
<path d="M4.16911 6.09609C3.86744 5.76406 3.80711 5.28262 4.10207 4.8875C4.10207 4.86758 4.10207 4.08066 4.10207 4.06074C4.10207 2.11504 5.48973 0.484766 7.33995 0.0896484C7.0584 0.0298828 6.77014 0 6.47518 0C4.21268 0 2.37252 1.82285 2.37252 4.06074C2.37252 4.08066 2.37252 4.86758 2.37252 4.8875C1.9703 5.42539 2.22839 6.11934 2.85183 6.38828C3.02278 6.46133 3.14009 6.62402 3.15685 6.80664C3.26746 7.98203 3.95459 8.93164 4.91992 9.43965C4.43726 8.44355 4.40709 7.55371 4.46407 6.9959C4.49424 6.66719 4.39033 6.3418 4.16911 6.09609Z" fill="#EF8A11"/>
</g>
<g clip-path="url(#clip1)">
<path d="M18.2593 15.8246L17.5252 12.1789C17.3644 11.3787 16.7744 11.05 16.4392 10.9238C16.4258 10.9172 14.3175 10.3029 14.3041 10.2996L13.6438 9.85801V9.44297C14.6326 8.92832 15.3465 7.93555 15.4236 6.69375C15.4303 6.5709 15.5108 6.46133 15.6281 6.42148C16.3152 6.18574 16.6169 5.44863 16.1979 4.8875C16.1979 4.86758 16.1979 4.08066 16.1979 4.06074C16.1979 1.82285 14.3578 0 12.0986 0C9.83947 0 7.99595 1.82285 7.99595 4.06074C7.99595 4.08066 7.99595 4.86758 7.99595 4.8875C7.59373 5.42539 7.85183 6.11934 8.47527 6.38828C8.64621 6.46133 8.76353 6.62402 8.78029 6.80664C8.8909 7.98203 9.57802 8.93164 10.5434 9.43965V9.86465L9.8998 10.2963C9.88304 10.2996 7.76133 10.9205 7.74792 10.9271C7.41273 11.05 6.82281 11.3787 6.66192 12.1822L5.92452 15.8246C5.84407 16.223 5.96139 17 6.94012 17C8.26075 17 16.094 17 17.2437 17C17.6023 17 17.8772 16.8937 18.0582 16.6879C18.2593 16.4588 18.3163 16.0969 18.2593 15.8246Z" fill="white"/>
<path d="M7.6523 15.8246L8.38635 11.5646C8.48691 11.0666 8.75171 10.7512 9.01985 10.5519C8.42993 10.7246 7.75621 10.9238 7.74615 10.9238C7.41097 11.0467 6.82104 11.3754 6.66016 12.1789L5.9261 15.8246C5.84566 16.223 5.96297 17 6.94171 17C7.23667 17 7.86347 17 8.66791 17C7.69252 17 7.57186 16.223 7.6523 15.8246Z" fill="#EAEAEA"/>
<path d="M9.79411 6.09609C9.49244 5.76406 9.43211 5.28262 9.72707 4.8875C9.72707 4.86758 9.72707 4.08066 9.72707 4.06074C9.72707 2.11504 11.1147 0.484766 12.965 0.0896484C12.6834 0.0298828 12.3951 0 12.1002 0C9.83768 0 7.99752 1.82285 7.99752 4.06074C7.99752 4.08066 7.99752 4.86758 7.99752 4.8875C7.5953 5.42539 7.85339 6.11934 8.47683 6.38828C8.64778 6.46133 8.76509 6.62402 8.78185 6.80664C8.89246 7.98203 9.57959 8.93164 10.5449 9.43965C10.0623 8.44355 10.0321 7.55371 10.0891 6.9959C10.1192 6.66719 10.0153 6.3418 9.79411 6.09609Z" fill="#EAEAEA"/>
</g>
<defs>
<clipPath id="clip0">
<rect width="12.375" height="17" fill="white" transform="translate(0.281006)"/>
</clipPath>
<clipPath id="clip1">
<rect width="12.375" height="17" fill="white" transform="translate(5.90601)"/>
</clipPath>
</defs>
</svg>
