<svg width="86" height="86" viewBox="0 0 86 86" fill="none" xmlns="http://www.w3.org/2000/svg">
<circle cx="43.5" cy="42.5" r="39.5" fill="#FA941B" fill-opacity="0.08"/>
<mask id="mask0" mask-type="alpha" maskUnits="userSpaceOnUse" x="4" y="3" width="79" height="79">
<circle cx="43.5" cy="42.5" r="39.5" fill="#C4C4C4"/>
</mask>
<g mask="url(#mask0)">
<path d="M51.7976 58.1957C48.3267 56.3288 49.2659 47.2379 49.2659 47.2379L44.0799 47.5625V47.2379L43.5082 47.4002L42.9366 47.2379V47.5625L37.7506 47.2379C37.7506 47.2379 38.6898 56.3288 35.2189 58.1957C31.748 60.0626 11.2901 60.9961 13.4951 81.9784H42.9366H44.0391H73.4805C75.7264 60.9961 55.2685 60.0626 51.7976 58.1957Z" fill="#F19C7C"/>
<path d="M37.0973 55.8418C41.2216 55.233 45.3866 54.5837 49.5109 53.9343C48.9392 50.8093 49.3067 47.2379 49.3067 47.2379L44.1208 47.5625V47.2379L43.5491 47.4002L42.9774 47.2379V47.5625L37.7915 47.2379C37.8323 47.2379 38.3632 52.5139 37.0973 55.8418Z" fill="#C47D66"/>
<path d="M55.146 59.2509C52.3284 61.7671 48.1633 63.3499 43.5491 63.3499C38.9348 63.3499 34.7697 61.7671 31.9522 59.2509C25.1329 61.0772 11.7393 64.811 13.536 81.9783H42.9774H44.0799H73.5213C75.3589 64.811 61.9653 61.0772 55.146 59.2509Z" fill="#FC6A5A"/>
<path d="M13.4135 78.4068C13.3726 79.5432 13.4135 80.7201 13.5768 81.9783H73.5622C74.338 74.5107 72.2555 69.5999 69.1113 66.272C50.3684 69.5188 31.8297 73.7396 13.4135 78.4068Z" fill="#D35450"/>
<path d="M31.0538 58.4392L34.6064 81.9783H11.9843C11.9843 81.9783 9.53423 61.9701 31.0538 58.4392Z" fill="#765E69"/>
<path d="M31.0538 58.4392L34.6064 81.9784L25.092 67.0838L28.8896 61.9295L23.9895 60.022C23.9487 60.0626 27.2154 58.6015 31.0538 58.4392Z" fill="#8E7280"/>
<path d="M55.881 58.4392L52.3284 81.9784H74.9097C74.9097 81.9784 77.3598 61.9701 55.881 58.4392Z" fill="#765E69"/>
<path d="M55.881 58.4392L52.3284 81.9784L61.8428 67.0838L58.0452 61.9295L62.9453 60.022C62.9453 60.0626 59.6786 58.6015 55.881 58.4392Z" fill="#8E7280"/>
<path d="M33.4222 33.9261C32.4014 30.7605 29.9921 31.491 29.7471 31.5721C29.5021 31.6127 27.0113 31.978 27.4604 35.2654C27.9096 38.5527 29.8288 40.3385 31.6255 39.8108C33.4631 39.5268 34.4431 37.0917 33.4222 33.9261Z" fill="#C47D66"/>
<path d="M53.7984 33.9261C54.8193 30.7605 57.2285 31.491 57.4735 31.5721C57.7185 31.6127 60.2094 31.978 59.7602 35.2654C59.3111 38.5527 57.3919 40.3385 55.5951 39.8108C53.7168 39.5268 52.7776 37.0917 53.7984 33.9261Z" fill="#C47D66"/>
<path d="M30.9313 29.1776C32.1972 15.3788 42.7324 16.1499 43.7533 16.2717C44.7333 16.1499 55.3093 15.3788 56.5752 29.1776C57.841 43.0576 51.6343 52.108 43.7533 51.621C35.8723 52.108 29.6655 43.0576 30.9313 29.1776Z" fill="#F19C7C"/>
<path d="M45.5499 30.801C45.7133 31.4503 45.8766 32.0591 45.9991 32.7084C46.1216 33.3578 46.2033 34.0072 46.3258 34.6159C46.3666 34.9406 46.4075 35.2653 46.4483 35.59C46.4891 35.9146 46.53 36.2393 46.5708 36.564C46.6525 37.2133 46.6933 37.8627 46.7341 38.5121V38.6744L46.5708 38.7556C46.1625 38.9991 45.7133 39.2426 45.3049 39.4861C44.8558 39.7296 44.4474 39.9731 43.9982 40.176C44.3658 39.8514 44.7333 39.5267 45.1008 39.202C45.4683 38.8773 45.8766 38.5932 46.2441 38.3091L46.1216 38.5526C45.9991 37.9033 45.9175 37.2539 45.8358 36.6452C45.795 36.3205 45.7541 35.9958 45.7133 35.6711C45.6724 35.3465 45.6316 35.0218 45.6316 34.6971C45.5908 34.0477 45.5499 33.3984 45.5091 32.749C45.5499 32.0997 45.5499 31.4503 45.5499 30.801Z" fill="#A06653"/>
<path d="M49.1434 42.6517C46.6116 45.0868 42.7324 44.9245 39.5065 42.7735Z" fill="white"/>
<path d="M53.7168 29.7864C53.7168 29.7864 53.2267 29.624 52.4917 29.3399C52.3284 29.2994 52.1242 29.2182 51.9609 29.137C51.8792 29.0964 51.7567 29.0558 51.6751 29.0558C51.5934 29.0153 51.4709 29.0153 51.3892 28.9747C51.185 28.8935 50.9809 28.8935 50.7767 28.8123C50.5725 28.8123 50.3684 28.7312 50.1642 28.7312L49.8783 28.6906C49.7967 28.6906 49.6742 28.6906 49.5925 28.6906C49.3883 28.6906 49.225 28.7312 49.0208 28.7312C48.9392 28.7312 48.8167 28.7718 48.735 28.7718C48.6533 28.8123 48.5308 28.8123 48.4492 28.8529C48.245 28.8935 48.0816 28.9747 47.9183 29.0153C47.755 29.0558 47.5916 29.0964 47.4283 29.1776C47.3058 29.2182 47.1425 29.2994 47.0608 29.3399C46.8566 29.4211 46.6933 29.4617 46.6933 29.4617C46.6933 29.4617 46.7341 29.3399 46.8158 29.0964C46.8566 28.9747 46.9383 28.8529 47.02 28.6906C47.1016 28.5282 47.2241 28.4065 47.3466 28.2442C47.51 28.0818 47.6325 27.8789 47.8366 27.7571C48.0408 27.6354 48.245 27.4325 48.5308 27.3513C48.6533 27.3107 48.8167 27.2295 48.9392 27.189C49.0617 27.1484 49.225 27.1078 49.3883 27.1078C49.5517 27.0672 49.6742 27.0672 49.8375 27.0672C50.0009 27.0672 50.1234 27.0672 50.2867 27.0672C50.6134 27.0672 50.8992 27.1484 51.185 27.2295C51.3075 27.2701 51.4709 27.3513 51.5934 27.3919C51.7159 27.4325 51.8384 27.5136 51.9609 27.5948C52.0834 27.676 52.2059 27.7166 52.2876 27.7977C52.3692 27.8789 52.4917 27.9601 52.5734 28.0412C52.7776 28.2036 52.9001 28.3659 53.0634 28.5282C53.3084 28.8529 53.5126 29.137 53.5943 29.3805C53.6759 29.624 53.7168 29.7864 53.7168 29.7864Z" fill="#352C38"/>
<path d="M41.834 29.5023C41.834 29.5023 41.3032 29.3399 40.5682 29.137C40.364 29.0964 40.2007 29.0153 39.9965 28.9747C39.7923 28.9341 39.5882 28.8935 39.384 28.8529C39.1798 28.8123 38.9756 28.7718 38.7306 28.7312C38.5265 28.7312 38.3223 28.6906 38.1181 28.6906H37.7915C37.7098 28.6906 37.5873 28.7312 37.5056 28.7312C37.3014 28.7312 37.0973 28.8123 36.8931 28.8123C36.7706 28.8123 36.6889 28.8529 36.6073 28.8935C36.5256 28.9341 36.4031 28.9747 36.3214 28.9747C36.1173 29.0153 35.9539 29.0964 35.7906 29.1776C35.6272 29.2588 35.4639 29.2994 35.3006 29.3805C35.1781 29.4617 35.0147 29.5023 34.9331 29.5429C34.7289 29.624 34.5656 29.7052 34.5656 29.7052C34.5656 29.7052 34.6064 29.5834 34.6881 29.3399C34.7289 29.2182 34.8106 29.0964 34.8922 28.9341C34.9739 28.7718 35.0964 28.6094 35.2189 28.4471C35.3822 28.2847 35.5047 28.0818 35.7089 27.9195C35.7906 27.8383 35.9131 27.7571 36.0356 27.676C36.1581 27.5948 36.2806 27.5136 36.4031 27.473C36.6481 27.3513 36.9339 27.2295 37.2606 27.1484C37.4239 27.1078 37.5464 27.0672 37.7098 27.0672C37.8731 27.0672 38.0365 27.0672 38.159 27.0672C38.4856 27.0672 38.7715 27.1078 39.0573 27.189C39.2206 27.2295 39.3432 27.2701 39.4657 27.3107C39.5882 27.3513 39.7515 27.3919 39.874 27.473C40.119 27.5948 40.364 27.7166 40.5682 27.8789C40.7723 28.0006 40.9357 28.163 41.099 28.3253C41.3849 28.65 41.589 28.9341 41.7115 29.137C41.7932 29.3805 41.834 29.5023 41.834 29.5023Z" fill="#352C38"/>
<path d="M40.119 34.7782C40.119 34.7782 40.0782 34.6565 40.0374 34.4941C39.9557 34.2912 39.874 34.0477 39.7107 33.7636C39.5473 33.4795 39.3432 33.1548 39.0165 32.9519C38.8532 32.8302 38.6898 32.749 38.4857 32.7084C38.404 32.6678 38.2815 32.6272 38.1998 32.6272C38.1182 32.6272 37.9957 32.5867 37.914 32.5867C37.8323 32.5867 37.7098 32.5867 37.6281 32.5867C37.5056 32.5867 37.3831 32.6272 37.3015 32.6272C37.1381 32.6678 36.934 32.749 36.8115 32.8708C36.6481 32.9925 36.5256 33.1143 36.444 33.2766C36.3623 33.4389 36.2806 33.5607 36.1989 33.723C36.0764 34.0071 36.0356 34.2912 35.9948 34.4941C35.9539 34.6971 35.9539 34.8188 35.9539 34.8188C35.9539 34.8188 35.9131 34.6971 35.9131 34.4941C35.9131 34.2912 35.8723 34.0071 35.9539 33.6419C35.9948 33.4795 36.0356 33.2766 36.1581 33.0737C36.2806 32.8708 36.4031 32.6678 36.5665 32.5461C36.7298 32.3837 36.9748 32.262 37.2198 32.1808C37.3423 32.1402 37.4648 32.1402 37.5465 32.0996C37.7098 32.0591 37.7915 32.0996 37.914 32.0996C38.0365 32.0996 38.159 32.0996 38.2815 32.1402C38.404 32.1402 38.5265 32.1808 38.649 32.2214C38.7715 32.262 38.894 32.3026 38.9757 32.3837C39.0982 32.4243 39.1798 32.5055 39.2615 32.5867C39.629 32.9113 39.8332 33.2766 39.9149 33.6419C40.0374 33.9665 40.0782 34.2912 40.0782 34.4536C40.1599 34.6565 40.119 34.7782 40.119 34.7782Z" fill="#352C38"/>
<path d="M51.9609 34.5754C51.9609 34.5754 51.9201 34.4536 51.8792 34.2913C51.7976 34.0883 51.7159 33.8448 51.5526 33.5607C51.3892 33.2766 51.1851 32.952 50.8584 32.749C50.6951 32.6273 50.5317 32.5461 50.3275 32.5055C50.2459 32.4649 50.1234 32.4244 50.0417 32.4244C49.96 32.4244 49.8375 32.3838 49.7559 32.3838C49.6742 32.3838 49.5517 32.3838 49.47 32.3838C49.3475 32.3838 49.225 32.4244 49.1434 32.4244C48.98 32.4649 48.7759 32.5461 48.6533 32.6679C48.49 32.7896 48.3675 32.9114 48.2858 33.0737C48.2042 33.2361 48.1225 33.3578 48.0408 33.5201C47.9183 33.8042 47.8775 34.0883 47.8367 34.2913C47.7958 34.4942 47.7958 34.6159 47.7958 34.6159C47.7958 34.6159 47.755 34.4942 47.755 34.2913C47.755 34.0883 47.7142 33.8042 47.7958 33.439C47.8367 33.2766 47.8775 33.0737 48 32.8708C48.1225 32.6679 48.245 32.4649 48.4083 32.3432C48.5717 32.1809 48.8167 32.0591 49.0617 31.9779C49.1842 31.9373 49.3067 31.9373 49.3884 31.8968C49.5517 31.8562 49.6334 31.8968 49.7559 31.8968C49.8784 31.8968 50.0009 31.8968 50.1234 31.9373C50.2459 31.9373 50.3684 31.9779 50.4909 32.0185C50.6134 32.0591 50.7359 32.0997 50.8176 32.1809C50.9401 32.2214 51.0217 32.3026 51.1034 32.3838C51.4709 32.7085 51.6751 33.0737 51.7567 33.439C51.8792 33.7637 51.9201 34.0883 51.9201 34.2507C51.9609 34.4536 51.9609 34.5754 51.9609 34.5754Z" fill="#352C38"/>
<path d="M37.4239 42.6111H43.9574L50.7767 42.7329C50.7767 42.7329 49.1842 39.892 43.9982 40.1355C38.8531 40.4601 38.4039 41.6777 37.4239 42.6111Z" fill="#352C38"/>
<path d="M35.6681 20.1678C35.6681 20.1678 40.9765 26.9455 48.6125 25.7279L46.8566 23.2928C46.8566 23.2928 51.4709 25.4438 59.2294 23.4146C59.2294 23.4146 59.7602 15.0135 46.5708 13.1466C46.5708 13.1466 52.8184 13.6742 57.1877 16.2717C57.1877 16.2717 44.4066 3.00046 33.9122 16.2717C33.9122 16.2717 27.9096 16.3934 27.6646 23.0493C27.3787 29.6646 29.0121 32.0997 29.0121 32.0997C29.0121 32.0997 30.3596 31.0039 30.768 33.3173C31.1763 35.6306 30.768 39.1209 32.2788 42.3677L34.7289 40.6225C34.7289 40.6225 31.5847 33.3173 32.2788 27.2295C32.2788 27.189 36.1989 26.3773 35.6681 20.1678Z" fill="#352C38"/>
<path d="M57.3102 22.197C57.3102 22.197 59.0661 37.0916 54.8601 43.017L53.2268 40.9877C53.2268 40.9877 57.841 32.8708 54.3293 23.1305L57.3102 22.197Z" fill="#352C38"/>
</g>
<path d="M0 43C-7.43495e-07 51.5046 2.5219 59.8182 7.2468 66.8895C11.9717 73.9608 18.6874 79.4723 26.5446 82.7268C34.4018 85.9814 43.0477 86.8329 51.3889 85.1738C59.7301 83.5146 67.3919 79.4193 73.4056 73.4056C79.4193 67.3919 83.5146 59.7301 85.1738 51.3889C86.8329 43.0477 85.9814 34.4018 82.7268 26.5446C79.4723 18.6874 73.9608 11.9717 66.8895 7.24681C59.8182 2.52191 51.5046 6.42079e-07 43 0V5.41492C50.4336 5.41492 57.7003 7.61924 63.8812 11.7491C70.062 15.879 74.8794 21.749 77.7241 28.6168C80.5688 35.4846 81.3131 43.0417 79.8629 50.3325C78.4127 57.6233 74.833 64.3203 69.5767 69.5767C64.3203 74.833 57.6233 78.4127 50.3325 79.8629C43.0417 81.3131 35.4846 80.5688 28.6168 77.7241C21.749 74.8794 15.879 70.062 11.7491 63.8811C7.61924 57.7003 5.41492 50.4336 5.41492 43H0Z" fill="#2835AC"/>
</svg>
