<svg width="123" height="69" viewBox="0 0 123 69" fill="none" xmlns="http://www.w3.org/2000/svg">
<ellipse cx="34.266" cy="34.5421" rx="33.985" ry="33.4278" fill="#FA941B" fill-opacity="0.08"/>
<mask id="mask0" mask-type="alpha" maskUnits="userSpaceOnUse" x="0" y="1" width="69" height="67">
<ellipse cx="34.266" cy="34.5421" rx="33.985" ry="33.4278" fill="#C4C4C4"/>
</mask>
<g mask="url(#mask0)">
<path d="M41.405 47.8249C38.4187 46.245 39.2268 38.5516 39.2268 38.5516L34.7649 38.8263V38.5516L34.273 38.689L33.7812 38.5516V38.8263L29.3193 38.5516C29.3193 38.5516 30.1274 46.245 27.1411 47.8249C24.1548 49.4049 6.55321 50.1948 8.45038 67.9516H33.7812H34.7298H60.0605C61.9928 50.1948 44.3913 49.4049 41.405 47.8249Z" fill="#F19C7C"/>
<path d="M28.7572 45.8329C32.3056 45.3177 35.8892 44.7682 39.4376 44.2186C38.9457 41.574 39.2619 38.5516 39.2619 38.5516L34.8001 38.8263V38.5516L34.3082 38.689L33.8163 38.5516V38.8263L29.3545 38.5516C29.3896 38.5516 29.8463 43.0165 28.7572 45.8329Z" fill="#C47D66"/>
<path d="M44.2859 48.7179C41.8617 50.8473 38.2782 52.1868 34.3082 52.1868C30.3381 52.1868 26.7546 50.8473 24.3304 48.7179C18.4632 50.2635 6.93967 53.4233 8.48551 67.9516H33.8163H34.7649H60.0957C61.6766 53.4233 50.1531 50.2635 44.2859 48.7179Z" fill="#FC6A5A"/>
<path d="M8.3801 64.9291C8.34497 65.8908 8.3801 66.8868 8.52063 67.9516H60.1308C60.7983 61.6319 59.0065 57.4761 56.3013 54.6597C40.1753 57.4074 24.225 60.9794 8.3801 64.9291Z" fill="#D35450"/>
<path d="M23.5576 48.031L26.6141 67.9516H7.15052C7.15052 67.9516 5.04255 51.0191 23.5576 48.031Z" fill="#765E69"/>
<path d="M23.5576 48.031L26.6141 67.9516L18.4282 55.3467L21.6955 50.9847L17.4796 49.3705C17.4444 49.4048 20.2551 48.1684 23.5576 48.031Z" fill="#8E7280"/>
<path d="M44.9184 48.031L41.8618 67.9516H61.2903C61.2903 67.9516 63.3982 51.0191 44.9184 48.031Z" fill="#765E69"/>
<path d="M44.9184 48.031L41.8618 67.9516L50.0478 55.3467L46.7804 50.9847L50.9963 49.3705C50.9963 49.4048 48.1857 48.1684 44.9184 48.031Z" fill="#8E7280"/>
<path d="M25.5952 27.2861C24.7169 24.6072 22.6441 25.2254 22.4333 25.2941C22.2225 25.3284 20.0794 25.6375 20.4658 28.4196C20.8523 31.2016 22.5035 32.7128 24.0494 32.2663C25.6303 32.0259 26.4735 29.9651 25.5952 27.2861Z" fill="#C47D66"/>
<path d="M43.1266 27.2861C44.0049 24.6072 46.0777 25.2254 46.2885 25.2941C46.4993 25.3284 48.6424 25.6375 48.2559 28.4196C47.8695 31.2016 46.2182 32.7128 44.6724 32.2663C43.0563 32.0259 42.2482 29.9651 43.1266 27.2861Z" fill="#C47D66"/>
<path d="M23.4521 23.2677C24.5412 11.5901 33.6055 12.2427 34.4838 12.3457C35.327 12.2427 44.4264 11.5901 45.5155 23.2677C46.6047 35.014 41.2645 42.6731 34.4838 42.2609C27.7032 42.6731 22.363 35.014 23.4521 23.2677Z" fill="#F19C7C"/>
<path d="M36.0298 24.6415C36.1703 25.191 36.3108 25.7062 36.4162 26.2557C36.5216 26.8053 36.5919 27.3548 36.6973 27.87C36.7324 28.1447 36.7675 28.4195 36.8027 28.6943C36.8378 28.969 36.8729 29.2438 36.9081 29.5186C36.9783 30.0681 37.0135 30.6176 37.0486 31.1672V31.3046L36.9081 31.3733C36.5567 31.5793 36.1703 31.7854 35.819 31.9915C35.4325 32.1976 35.0812 32.4036 34.6947 32.5754C35.0109 32.3006 35.3271 32.0258 35.6433 31.7511C35.9595 31.4763 36.3108 31.2359 36.627 30.9955L36.5216 31.2015C36.4162 30.652 36.3459 30.1025 36.2757 29.5873C36.2405 29.3125 36.2054 29.0377 36.1703 28.763C36.1352 28.4882 36.1 28.2134 36.1 27.9387C36.0649 27.3891 36.0298 26.8396 35.9946 26.2901C36.0298 25.7405 36.0298 25.191 36.0298 24.6415Z" fill="#A06653"/>
<path d="M39.1214 34.6705C36.9432 36.7312 33.6056 36.5938 30.8301 34.7735Z" fill="white"/>
<path d="M43.0563 23.7829C43.0563 23.7829 42.6347 23.6455 42.0023 23.4051C41.8618 23.3707 41.6861 23.302 41.5456 23.2333C41.4753 23.199 41.3699 23.1646 41.2996 23.1646C41.2294 23.1303 41.124 23.1303 41.0537 23.0959C40.878 23.0273 40.7024 23.0273 40.5267 22.9586C40.351 22.9586 40.1754 22.8899 39.9997 22.8899L39.7538 22.8555C39.6835 22.8555 39.5781 22.8555 39.5079 22.8555C39.3322 22.8555 39.1917 22.8899 39.016 22.8899C38.9457 22.8899 38.8403 22.9242 38.7701 22.9242C38.6998 22.9586 38.5944 22.9586 38.5241 22.9929C38.3485 23.0273 38.2079 23.0959 38.0674 23.1303C37.9269 23.1646 37.7864 23.199 37.6458 23.2677C37.5404 23.302 37.3999 23.3707 37.3296 23.4051C37.154 23.4737 37.0134 23.5081 37.0134 23.5081C37.0134 23.5081 37.0486 23.4051 37.1188 23.199C37.154 23.0959 37.2242 22.9929 37.2945 22.8555C37.3648 22.7181 37.4702 22.6151 37.5756 22.4777C37.7161 22.3403 37.8215 22.1686 37.9971 22.0656C38.1728 21.9625 38.3485 21.7908 38.5944 21.7221C38.6998 21.6878 38.8403 21.6191 38.9457 21.5847C39.0511 21.5504 39.1917 21.516 39.3322 21.516C39.4727 21.4817 39.5781 21.4817 39.7187 21.4817C39.8592 21.4817 39.9646 21.4817 40.1051 21.4817C40.3862 21.4817 40.6321 21.5504 40.878 21.6191C40.9834 21.6534 41.124 21.7221 41.2294 21.7565C41.3348 21.7908 41.4402 21.8595 41.5456 21.9282C41.651 21.9969 41.7564 22.0312 41.8266 22.0999C41.8969 22.1686 42.0023 22.2373 42.0726 22.306C42.2482 22.4434 42.3536 22.5808 42.4941 22.7181C42.7049 22.9929 42.8806 23.2333 42.9509 23.4394C43.0211 23.6455 43.0563 23.7829 43.0563 23.7829Z" fill="#352C38"/>
<path d="M32.8326 23.5424C32.8326 23.5424 32.3759 23.4051 31.7435 23.2333C31.5678 23.199 31.4273 23.1303 31.2517 23.0959C31.076 23.0616 30.9003 23.0272 30.7247 22.9929C30.549 22.9586 30.3733 22.9242 30.1625 22.8899C29.9869 22.8899 29.8112 22.8555 29.6355 22.8555H29.3545C29.2842 22.8555 29.1788 22.8899 29.1085 22.8899C28.9329 22.8899 28.7572 22.9586 28.5816 22.9586C28.4762 22.9586 28.4059 22.9929 28.3356 23.0272C28.2654 23.0616 28.16 23.0959 28.0897 23.0959C27.914 23.1303 27.7735 23.199 27.633 23.2677C27.4924 23.3364 27.3519 23.3707 27.2114 23.4394C27.106 23.5081 26.9654 23.5424 26.8952 23.5768C26.7195 23.6455 26.579 23.7142 26.579 23.7142C26.579 23.7142 26.6141 23.6111 26.6844 23.4051C26.7195 23.302 26.7898 23.199 26.86 23.0616C26.9303 22.9242 27.0357 22.7868 27.1411 22.6494C27.2816 22.5121 27.387 22.3403 27.5627 22.2029C27.633 22.1343 27.7384 22.0656 27.8438 21.9969C27.9492 21.9282 28.0546 21.8595 28.16 21.8251C28.3708 21.7221 28.6167 21.6191 28.8977 21.5504C29.0383 21.516 29.1437 21.4817 29.2842 21.4817C29.4247 21.4817 29.5653 21.4817 29.6707 21.4817C29.9517 21.4817 30.1977 21.516 30.4436 21.5847C30.5841 21.6191 30.6895 21.6534 30.7949 21.6878C30.9003 21.7221 31.0409 21.7565 31.1463 21.8251C31.357 21.9282 31.5678 22.0312 31.7435 22.1686C31.9192 22.2716 32.0597 22.409 32.2002 22.5464C32.4462 22.8212 32.6218 23.0616 32.7272 23.2333C32.7975 23.4394 32.8326 23.5424 32.8326 23.5424Z" fill="#352C38"/>
<path d="M31.3571 28.0074C31.3571 28.0074 31.3219 27.9043 31.2868 27.7669C31.2165 27.5952 31.1463 27.3891 31.0057 27.1487C30.8652 26.9083 30.6896 26.6335 30.4085 26.4618C30.268 26.3588 30.1274 26.2901 29.9518 26.2557C29.8815 26.2214 29.7761 26.187 29.7058 26.187C29.6356 26.187 29.5302 26.1527 29.4599 26.1527C29.3896 26.1527 29.2842 26.1527 29.214 26.1527C29.1086 26.1527 29.0032 26.187 28.9329 26.187C28.7924 26.2214 28.6167 26.2901 28.5113 26.3931C28.3708 26.4962 28.2654 26.5992 28.1951 26.7366C28.1249 26.874 28.0546 26.977 27.9843 27.1144C27.8789 27.3548 27.8438 27.5952 27.8087 27.7669C27.7735 27.9387 27.7735 28.0417 27.7735 28.0417C27.7735 28.0417 27.7384 27.9387 27.7384 27.7669C27.7384 27.5952 27.7033 27.3548 27.7735 27.0457C27.8087 26.9083 27.8438 26.7366 27.9492 26.5648C28.0546 26.3931 28.16 26.2214 28.3005 26.1184C28.4411 25.981 28.6519 25.8779 28.8626 25.8092C28.968 25.7749 29.0734 25.7749 29.1437 25.7405C29.2842 25.7062 29.3545 25.7405 29.4599 25.7405C29.5653 25.7405 29.6707 25.7405 29.7761 25.7749C29.8815 25.7749 29.9869 25.8092 30.0923 25.8436C30.1977 25.8779 30.3031 25.9123 30.3734 25.981C30.4788 26.0153 30.549 26.084 30.6193 26.1527C30.9355 26.4275 31.1111 26.7366 31.1814 27.0457C31.2868 27.3205 31.3219 27.5952 31.3219 27.7326C31.3922 27.9043 31.3571 28.0074 31.3571 28.0074Z" fill="#352C38"/>
<path d="M41.5456 27.8356C41.5456 27.8356 41.5104 27.7326 41.4753 27.5952C41.405 27.4235 41.3348 27.2174 41.1942 26.977C41.0537 26.7366 40.878 26.4618 40.597 26.2901C40.4564 26.187 40.3159 26.1183 40.1402 26.084C40.07 26.0496 39.9646 26.0153 39.8943 26.0153C39.824 26.0153 39.7186 25.9809 39.6484 25.9809C39.5781 25.9809 39.4727 25.9809 39.4025 25.9809C39.2971 25.9809 39.1917 26.0153 39.1214 26.0153C38.9809 26.0496 38.8052 26.1183 38.6998 26.2214C38.5593 26.3244 38.4539 26.4274 38.3836 26.5648C38.3133 26.7022 38.2431 26.8052 38.1728 26.9426C38.0674 27.183 38.0323 27.4235 37.9971 27.5952C37.962 27.7669 37.962 27.87 37.962 27.87C37.962 27.87 37.9269 27.7669 37.9269 27.5952C37.9269 27.4235 37.8917 27.183 37.962 26.8739C37.9971 26.7366 38.0323 26.5648 38.1377 26.3931C38.2431 26.2214 38.3485 26.0496 38.489 25.9466C38.6295 25.8092 38.8403 25.7062 39.0511 25.6375C39.1565 25.6031 39.2619 25.6031 39.3322 25.5688C39.4727 25.5344 39.543 25.5688 39.6484 25.5688C39.7538 25.5688 39.8592 25.5688 39.9646 25.6031C40.07 25.6031 40.1754 25.6375 40.2808 25.6718C40.3862 25.7062 40.4916 25.7405 40.5618 25.8092C40.6672 25.8436 40.7375 25.9123 40.8078 25.9809C41.124 26.2557 41.2996 26.5648 41.3699 26.8739C41.4753 27.1487 41.5104 27.4235 41.5104 27.5608C41.5456 27.7326 41.5456 27.8356 41.5456 27.8356Z" fill="#352C38"/>
<path d="M29.0382 34.6361H34.6595L40.5266 34.7392C40.5266 34.7392 39.1565 32.335 34.6946 32.541C30.2679 32.8158 29.8814 33.8462 29.0382 34.6361Z" fill="#352C38"/>
<path d="M27.5275 15.6429C27.5275 15.6429 32.0947 21.3787 38.6646 20.3483L37.1539 18.2875C37.1539 18.2875 41.1239 20.1079 47.7991 18.3906C47.7991 18.3906 48.2559 11.281 36.9079 9.70109C36.9079 9.70109 42.2833 10.1476 46.0425 12.3457C46.0425 12.3457 35.0459 1.11464 26.0168 12.3457C26.0168 12.3457 20.8522 12.4488 20.6414 18.0815C20.3955 23.6798 21.8008 25.7406 21.8008 25.7406C21.8008 25.7406 22.9602 24.8132 23.3115 26.771C23.6629 28.7287 23.3115 31.6824 24.6114 34.4301L26.7194 32.9532C26.7194 32.9532 24.0142 26.771 24.6114 21.6191C24.6114 21.5847 27.9842 20.8978 27.5275 15.6429Z" fill="#352C38"/>
<path d="M46.1479 17.3602C46.1479 17.3602 47.6586 29.9651 44.04 34.9796L42.6346 33.2623C42.6346 33.2623 46.6047 26.3931 43.5832 18.1501L46.1479 17.3602Z" fill="#352C38"/>
</g>
<circle cx="88.7181" cy="34.1316" r="34.1316" fill="#2835AC" fill-opacity="0.08"/>
<mask id="mask1" mask-type="alpha" maskUnits="userSpaceOnUse" x="54" y="0" width="69" height="69">
<circle cx="88.7181" cy="34.1316" r="34.1316" fill="#C4C4C4"/>
</mask>
<g mask="url(#mask1)">
<path d="M95.4659 47.6468C92.4399 46.0285 93.2587 38.1479 93.2587 38.1479L88.7375 38.4293V38.1479L88.2391 38.2886L87.7407 38.1479V38.4293L83.2195 38.1479C83.2195 38.1479 84.0383 46.0285 81.0123 47.6468C77.9863 49.2652 60.1507 50.0744 62.0731 68.2631H87.7407H88.7019H114.369C116.327 50.0744 98.4918 49.2652 95.4659 47.6468Z" fill="#FFAC9D"/>
<path d="M82.6143 45.6063C86.2098 45.0786 89.841 44.5157 93.4366 43.9528C92.9382 41.2438 93.2586 38.1479 93.2586 38.1479L88.7374 38.4293V38.1479L88.239 38.2886L87.7406 38.1479V38.4293L83.2195 38.1479C83.2551 38.1479 83.7179 42.7215 82.6143 45.6063Z" fill="#CC887F"/>
<path d="M98.3146 48.5615C95.6446 50.1095 92.049 51.0594 88.133 51.0594C84.2526 51.0594 80.6926 50.1447 78.0226 48.5967C72.0774 50.1799 60.5431 53.4869 62.1095 68.2631H87.777H88.7382H114.406C115.972 53.3462 104.26 50.1095 98.3146 48.5615Z" fill="#7AA8CE"/>
<path d="M110.631 54.7886C108.246 55.9144 105.576 56.3014 102.942 57.1106C99.2395 58.2364 95.5015 59.3622 91.7279 60.4176C84.2163 62.5285 76.6692 64.5339 69.1576 66.5392C67.0216 67.1021 64.85 67.665 62.714 68.2631H114.405C115.081 61.8953 113.337 57.6735 110.631 54.7886Z" fill="#6F96BD"/>
<path d="M75.9214 49.194C69.727 51.0586 60.6847 55.0693 62.1087 68.2623H83.3974L75.9214 49.194Z" fill="#FFA65B"/>
<path d="M100.414 49.1245L97.0321 68.2631H114.405C115.793 54.9645 106.644 50.9539 100.414 49.1245Z" fill="#FFA65B"/>
<path d="M81.5463 68.263H83.4331L75.9571 49.1948C74.3551 49.6873 72.5751 50.2854 70.8307 51.1649L81.5463 68.263Z" fill="#D68950"/>
<path d="M100.414 49.1245L97.0321 68.2631H98.5985L107.57 52.2204C105.184 50.7076 102.621 49.7929 100.414 49.1245Z" fill="#D68950"/>
<path d="M79.4102 26.6436C78.5202 23.8995 76.4198 24.5327 76.2062 24.6031C75.9926 24.6383 73.8211 24.9549 74.2126 27.8046C74.6042 30.6543 76.2774 32.2022 77.8438 31.7449C79.4458 31.4986 80.3002 29.3877 79.4102 26.6436Z" fill="#CC887F"/>
<path d="M97.1745 26.6436C98.0645 23.8995 100.165 24.5327 100.379 24.6031C100.592 24.6383 102.764 24.9549 102.372 27.8046C101.981 30.6543 100.307 32.2022 98.7409 31.7449C97.1389 31.4986 96.2845 29.3877 97.1745 26.6436Z" fill="#CC887F"/>
<path d="M77.2386 22.4922C78.3422 10.5306 87.527 11.199 88.417 11.3045C89.2714 11.199 98.4918 10.5306 99.5954 22.4922C100.699 34.5242 95.2878 42.3696 88.417 41.9475C81.5818 42.3696 76.135 34.5242 77.2386 22.4922Z" fill="#FFAC9D"/>
<path d="M90.019 28.1212C90.1614 28.4027 90.3038 28.6841 90.4106 28.9656C90.5174 29.247 90.5886 29.5285 90.6954 29.8451C90.731 29.9858 90.7666 30.1266 90.8022 30.2673C90.8378 30.408 90.8734 30.5487 90.909 30.7246C90.9802 31.0061 91.0158 31.3227 91.0514 31.6042V31.7449L90.9802 31.8153C90.731 32.0263 90.4818 32.2726 90.2326 32.4837C89.9834 32.6948 89.6986 32.9059 89.4138 33.0818C89.5918 32.8003 89.8054 32.5189 90.019 32.2726C90.2326 32.0263 90.4462 31.7449 90.6598 31.4986L90.5886 31.7097C90.4818 31.4283 90.4106 31.1468 90.3394 30.8302C90.3038 30.6895 90.2682 30.5487 90.2326 30.3728C90.197 30.2321 90.1614 30.0914 90.1614 29.9155C90.1258 29.634 90.0902 29.3174 90.0546 29.0007C89.9834 28.7545 89.9834 28.4378 90.019 28.1212Z" fill="#CC887F"/>
<path d="M93.1163 35.2278C90.9091 37.3387 87.2067 37.198 84.3943 35.3334L93.1163 35.2278Z" fill="white"/>
<path d="M97.1035 24.0759C97.1035 24.0759 96.9967 24.0407 96.8543 23.9352C96.7831 23.9 96.6763 23.8296 96.5695 23.7593C96.4627 23.6889 96.3203 23.6185 96.2135 23.5482C96.0711 23.4778 95.9287 23.4074 95.7863 23.3371C95.7151 23.3019 95.6439 23.2667 95.5371 23.2315C95.4659 23.1963 95.3591 23.1612 95.2879 23.126C95.1099 23.0556 94.9319 23.0204 94.7895 22.9853C94.6115 22.9501 94.4335 22.9149 94.2555 22.9149L94.0063 22.8797C93.9351 22.8797 93.8283 22.8797 93.7571 22.9149C93.5791 22.9149 93.4367 22.9853 93.2587 22.9853C93.0807 23.0204 92.9383 23.0908 92.7959 23.126L92.5823 23.1963L92.4755 23.2667C92.4043 23.3019 92.3331 23.3371 92.2619 23.3723C92.1195 23.4426 91.9771 23.4778 91.9059 23.5482C91.7991 23.6185 91.6923 23.6537 91.6211 23.7241C91.4431 23.8296 91.3363 23.8648 91.3363 23.8648C91.3363 23.8648 91.3719 23.7593 91.4787 23.5833C91.5143 23.513 91.5855 23.4074 91.6567 23.2667C91.7279 23.1612 91.8347 23.0204 91.9415 22.9149C92.0483 22.8094 92.1907 22.6334 92.3331 22.5279C92.5111 22.4224 92.6891 22.2816 92.8671 22.2113C92.9739 22.1761 93.0807 22.1409 93.1875 22.1057C93.2943 22.0705 93.4011 22.0354 93.5435 22.0354C93.6503 22.0354 93.7927 22.0002 93.8995 22.0002C94.0063 22.0002 94.1487 22.0002 94.2555 22.0002C94.5047 22.0002 94.7183 22.0705 94.9675 22.1409C95.0743 22.1761 95.1811 22.2113 95.2879 22.2816C95.3947 22.3168 95.5015 22.3872 95.5727 22.4224C95.6795 22.4927 95.7507 22.5279 95.8575 22.5983C95.9287 22.6686 95.9999 22.739 96.1067 22.7742C96.2491 22.8797 96.3915 23.0204 96.4983 23.1612C96.7119 23.4074 96.8899 23.6537 96.9611 23.7944C97.0679 23.9703 97.1035 24.0759 97.1035 24.0759Z" fill="#352C38"/>
<path d="M85.6402 24.0754C85.6402 24.0754 85.5334 24.0402 85.391 23.9346C85.3198 23.8995 85.213 23.8291 85.1062 23.7587C84.9994 23.6884 84.857 23.618 84.7502 23.5476C84.6078 23.4773 84.4654 23.4069 84.323 23.3365C84.2518 23.3014 84.1806 23.2662 84.0738 23.231C84.0026 23.1958 83.8958 23.1606 83.8246 23.1255C83.6466 23.0551 83.4686 23.0199 83.3262 22.9847C83.1483 22.9496 82.9703 22.9144 82.7923 22.9144L82.5431 22.8792C82.4719 22.8792 82.3651 22.8792 82.2939 22.9144C82.1159 22.9144 81.9735 22.9847 81.7955 22.9847C81.6175 23.0199 81.4751 23.0903 81.3327 23.1255L81.2259 23.1606L81.1191 23.231C81.0479 23.2662 80.9767 23.3014 80.9055 23.3365C80.7631 23.4069 80.6207 23.4421 80.5495 23.5125C80.4427 23.5828 80.3359 23.618 80.2647 23.6884C80.0867 23.7939 79.9799 23.8291 79.9799 23.8291C79.9799 23.8291 80.0155 23.7235 80.1223 23.5476C80.1579 23.4773 80.2291 23.3717 80.3003 23.231C80.3715 23.1255 80.4783 22.9847 80.5851 22.8792C80.6919 22.7736 80.8343 22.5977 80.9767 22.4922C81.1547 22.3867 81.3327 22.2459 81.5107 22.1756C81.6175 22.1404 81.7243 22.1052 81.8311 22.07C81.9379 22.0348 82.0447 21.9997 82.1871 21.9997C82.2939 21.9997 82.4363 21.9645 82.5431 21.9645C82.6499 21.9645 82.7923 21.9645 82.8991 21.9645C83.1482 21.9645 83.3618 22.0348 83.611 22.1052C83.7178 22.1404 83.8246 22.1756 83.9314 22.2459C84.0382 22.2811 84.145 22.3515 84.2162 22.3867C84.323 22.457 84.3942 22.4922 84.501 22.5626C84.5722 22.6329 84.6434 22.7033 84.7502 22.7385C84.8926 22.844 85.035 22.9847 85.1418 23.1255C85.3554 23.3717 85.5334 23.618 85.6046 23.7587C85.6046 23.9698 85.6402 24.0754 85.6402 24.0754Z" fill="#352C38"/>
<path d="M85.2842 28.4027C85.2842 28.4027 85.2486 28.2971 85.213 28.1564C85.1418 27.9805 85.0706 27.7694 84.9282 27.5231C84.7858 27.2769 84.6078 26.9954 84.323 26.8195C84.1806 26.714 84.0382 26.6436 83.8602 26.6084C83.789 26.5732 83.6822 26.5381 83.611 26.5381C83.5398 26.5381 83.433 26.5029 83.3618 26.5029C83.2906 26.5029 83.1838 26.5029 83.1126 26.5029C83.0058 26.5029 82.899 26.5381 82.8278 26.5381C82.6854 26.5732 82.5074 26.6436 82.4006 26.7491C82.2582 26.8547 82.1514 26.9602 82.0802 27.101C82.009 27.2417 81.9378 27.3472 81.8666 27.4879C81.7598 27.7342 81.7242 27.9805 81.6886 28.1564C81.653 28.3323 81.653 28.4378 81.653 28.4378C81.653 28.4378 81.6174 28.3323 81.6174 28.1564C81.6174 27.9805 81.5818 27.7342 81.653 27.4176C81.6886 27.2769 81.7242 27.101 81.831 26.925C81.9378 26.7491 82.0446 26.5732 82.187 26.4677C82.3294 26.327 82.543 26.2214 82.7566 26.1511C82.8634 26.1159 82.9702 26.1159 83.0414 26.0807C83.1838 26.0455 83.255 26.0807 83.3618 26.0807C83.4686 26.0807 83.5754 26.0807 83.6822 26.1159C83.789 26.1159 83.8958 26.1511 84.0026 26.1862C84.1094 26.2214 84.2162 26.2566 84.2874 26.327C84.3942 26.3621 84.4654 26.4325 84.5366 26.5029C84.857 26.7843 85.035 27.101 85.1062 27.4176C85.213 27.699 85.2486 27.9805 85.2486 28.1212C85.2842 28.2971 85.2842 28.4027 85.2842 28.4027Z" fill="#352C38"/>
<path d="M95.5726 28.2267C95.5726 28.2267 95.537 28.1212 95.5014 27.9804C95.4302 27.8045 95.359 27.5934 95.2166 27.3472C95.0742 27.1009 94.8962 26.8194 94.6114 26.6435C94.4691 26.538 94.3267 26.4676 94.1487 26.4325C94.0775 26.3973 93.9707 26.3621 93.8995 26.3621C93.8283 26.3621 93.7215 26.3269 93.6503 26.3269C93.5791 26.3269 93.4723 26.3269 93.4011 26.3269C93.2943 26.3269 93.1875 26.3621 93.1163 26.3621C92.9739 26.3973 92.7959 26.4676 92.6891 26.5732C92.5467 26.6787 92.4399 26.7843 92.3687 26.925C92.2975 27.0657 92.2263 27.1713 92.1551 27.312C92.0483 27.5583 92.0127 27.8045 91.9771 27.9804C91.9415 28.1563 91.9415 28.2619 91.9415 28.2619C91.9415 28.2619 91.9059 28.1563 91.9059 27.9804C91.9059 27.8045 91.8703 27.5583 91.9415 27.2416C91.9771 27.1009 92.0127 26.925 92.1195 26.7491C92.2263 26.5732 92.3331 26.3973 92.4755 26.2917C92.6179 26.151 92.8315 26.0455 93.0451 25.9751C93.1519 25.9399 93.2587 25.9399 93.3299 25.9047C93.4723 25.8696 93.5435 25.9047 93.6503 25.9047C93.7571 25.9047 93.8639 25.9047 93.9707 25.9399C94.0775 25.9399 94.1843 25.9751 94.2911 26.0103C94.3979 26.0455 94.5047 26.0806 94.5759 26.151C94.6826 26.1862 94.7539 26.2565 94.8251 26.3269C95.1454 26.6084 95.3234 26.925 95.3946 27.2416C95.5014 27.5231 95.537 27.8045 95.537 27.9452C95.5726 28.1563 95.5726 28.2267 95.5726 28.2267Z" fill="#352C38"/>
<path opacity="0.3" d="M71.8986 24.2865C72.4326 23.8291 73.0734 23.3718 73.5362 22.5626C73.643 22.3867 73.7142 22.1404 73.821 21.9293C73.8922 21.7182 73.9634 21.472 73.999 21.2257C74.0346 20.9794 74.0702 20.7332 74.0702 20.4869C74.0702 20.2406 74.0702 19.9943 74.0702 19.7481C74.0346 19.5018 74.0346 19.2555 73.999 19.0093V18.8334C73.999 18.763 73.999 18.7982 73.999 18.763V18.6575C73.999 18.5519 73.999 18.4112 73.999 18.2705C74.0346 17.7779 74.0702 17.2502 74.177 16.7577C74.2838 16.2651 74.3906 15.7374 74.6042 15.2801C74.6398 15.1745 74.711 15.0338 74.7466 14.9282C74.8178 14.8227 74.8534 14.7172 74.9246 14.6116L75.0314 14.4709L75.1738 14.3302L75.245 14.2598V14.2246L75.2806 14.1894L75.423 14.0487C75.6722 13.8376 75.9926 13.6265 76.313 13.4506C76.313 13.2044 76.313 12.9229 76.313 12.6766C75.8502 12.9229 75.3874 13.2044 74.9602 13.5562L74.8178 13.6969L74.7822 13.7321L74.7466 13.7673L74.711 13.8024L74.6398 13.8728L74.4974 14.0487L74.355 14.2598C74.2482 14.4005 74.2126 14.5412 74.1414 14.6468C74.0702 14.7875 74.0346 14.9282 73.9634 15.0338C73.7498 15.5615 73.643 16.1244 73.5362 16.6521C73.465 17.1798 73.3938 17.7076 73.3938 18.2353C73.3938 18.376 73.3938 18.4816 73.3938 18.6223V18.7278V18.8334L73.4294 19.0093C73.465 19.2555 73.5006 19.5018 73.5006 19.7481C73.5718 20.6628 73.5006 21.5775 73.1446 22.3163C72.7886 23.0199 72.1834 23.5477 71.685 24.0402C71.1866 24.5327 70.7594 24.9901 70.5458 25.4474C70.4034 25.6585 70.3322 25.8696 70.2254 26.0455C70.1542 26.2214 70.083 26.3973 70.0474 26.5029C69.9762 26.7492 69.905 26.8899 69.905 26.8899C69.905 26.8899 69.9762 26.7492 70.083 26.5029C70.1898 26.2566 70.3678 25.9048 70.6526 25.5178C70.9374 25.166 71.3646 24.7438 71.8986 24.2865Z" fill="#352C38"/>
<path d="M94.6825 12.2192C94.6825 12.2192 98.7053 12.3248 100.023 17.2502C101.34 22.1756 99.9157 23.1255 99.9157 27.1009C99.9157 27.1009 99.9157 29.5636 99.3105 30.3728L98.4917 22.2811C98.4561 22.3163 92.9025 19.3962 94.6825 12.2192Z" fill="#965450"/>
<path d="M87.3847 5.64055C86.7083 5.535 85.9963 5.49982 85.2131 5.64055C84.7147 5.74609 84.1807 5.922 83.7179 6.20345C83.2195 6.4849 82.8279 6.87189 82.4363 7.29407C81.6887 8.13842 81.1547 9.08832 80.4783 9.96785C79.8375 10.8474 79.0187 11.5862 78.0219 12.0084C77.7727 12.1139 77.5235 12.2195 77.2387 12.325C76.9895 12.4305 76.7047 12.5361 76.4199 12.6768C75.8859 12.9583 75.3875 13.2397 74.8891 13.6619L74.7467 13.8026L74.7111 13.8378L74.6755 13.873V13.9082L74.6043 13.9785L74.4619 14.1544L74.3195 14.3655C74.2127 14.5062 74.1771 14.647 74.1059 14.7525C74.0347 14.8932 73.9991 15.034 73.9279 15.1395C73.7143 15.6672 73.6075 16.2301 73.5007 16.7578C73.4295 17.2856 73.3583 17.8133 73.3583 18.341C73.3583 18.4817 73.3583 18.5873 73.3583 18.728V18.8335V18.9391L73.3939 19.115C73.4295 19.3613 73.4651 19.6075 73.4651 19.8538C73.5363 20.7685 73.4651 21.6832 73.1091 22.422C72.7531 23.1257 72.1479 23.6534 71.6495 24.1459C71.1511 24.6385 70.7239 25.0958 70.5103 25.5532C70.3679 25.7643 70.2967 25.9754 70.1899 26.1513C70.1187 26.3272 70.0475 26.5031 70.0119 26.6086C69.9407 26.8549 69.8695 26.9956 69.8695 26.9956C69.8695 26.9956 69.9407 26.8549 70.0475 26.6086C70.1543 26.3623 70.3323 26.0105 70.6171 25.6235C70.9019 25.2014 71.2935 24.7792 71.8275 24.357C72.3615 23.8997 73.0023 23.4423 73.4651 22.6331C73.5719 22.4572 73.6431 22.2109 73.7499 21.9999C73.8211 21.7888 73.8923 21.5425 73.9279 21.2962C73.9635 21.05 73.9991 20.8037 73.9991 20.5574C73.9991 20.3112 73.9991 20.0649 73.9991 19.8186C73.9635 19.5723 73.9635 19.3261 73.9279 19.0798V18.9039C73.9279 18.8335 73.9279 18.8687 73.9279 18.8335V18.728C73.9279 18.6225 73.9279 18.4817 73.9279 18.341C73.9635 17.8485 73.9991 17.3207 74.1059 16.8282C74.2127 16.3357 74.3195 15.8079 74.5331 15.3506C74.5687 15.245 74.6399 15.1043 74.6755 14.9988C74.7467 14.8932 74.7823 14.7877 74.8535 14.6821L74.9603 14.5414L75.1027 14.4007L75.1739 14.3303V14.2952L75.2095 14.26L75.3519 14.1192C75.6367 13.873 75.9927 13.6267 76.3487 13.4508C76.1707 13.5563 76.0283 13.6619 75.8859 13.7674C75.8147 13.8378 75.7435 13.873 75.6723 13.9433C75.6367 13.9785 75.6011 13.9785 75.6011 14.0137C75.4943 14.0841 75.4231 14.1896 75.3163 14.2952C74.0347 15.6672 74.1771 19.115 74.1771 19.1854C75.2095 24.5329 71.8987 23.4775 70.8307 27.3474C69.7627 31.2174 75.0315 33.7152 73.7855 35.0873C71.4003 37.6556 70.2255 34.2781 70.2255 34.2781C69.7627 36.2835 71.8987 39.2035 74.4975 38.8517C76.9539 38.5351 79.6595 36.6001 78.7339 32.6246C78.7339 32.6246 78.7339 32.6246 78.7339 32.6598L79.0187 33.3282C79.0899 33.5393 79.1967 33.7504 79.2679 33.9615L79.4459 34.5948L79.5883 35.228C79.5883 35.4391 79.6239 35.6502 79.6239 35.8965C79.5883 36.1076 79.6239 36.3187 79.5883 36.5297C79.5527 36.7408 79.5171 36.9519 79.4459 37.163C79.3747 37.3741 79.3035 37.5852 79.1967 37.7611C78.9831 38.1481 78.7339 38.5351 78.4135 38.8517C78.0931 39.1683 77.7371 39.4498 77.3455 39.6961C76.9539 39.9423 76.5267 40.1182 76.0639 40.259C76.5267 40.1534 76.9895 40.0479 77.4167 39.8368C77.8439 39.6257 78.2711 39.4146 78.6271 39.098C79.0187 38.7814 79.3391 38.4295 79.5883 38.0074C79.6951 37.7963 79.8375 37.5852 79.9087 37.3389C80.0155 37.1278 80.0867 36.8816 80.1223 36.6353C80.1935 36.389 80.1935 36.1428 80.2291 35.8965C80.2291 35.6502 80.2291 35.4039 80.2291 35.1577C80.1935 34.9114 80.1579 34.6651 80.1223 34.4189C80.0867 34.1726 80.0155 33.9615 79.9443 33.7152C79.8731 33.469 79.8019 33.2579 79.6951 33.0116L79.4459 32.3784C79.4103 32.2728 79.3747 32.1673 79.3391 32.0617L79.2679 31.7803C79.1967 31.5692 79.1967 31.3933 79.1967 31.1822C79.1967 30.7952 79.3035 30.4786 79.5527 30.1971C79.8019 29.8805 80.1579 29.599 80.5139 29.2472C80.6919 29.0713 80.8699 28.8602 81.0123 28.6843C81.1547 28.4732 81.2971 28.2621 81.4039 28.0159L81.5819 27.6641L81.6887 27.3122C81.7243 27.2067 81.7599 27.066 81.7955 26.9604L81.8667 26.5734L81.9379 26.1864L81.9735 25.7994L82.0091 25.0958L82.0447 24.3922C82.0447 24.1459 82.0447 23.9348 82.1159 23.7237C82.1871 23.3016 82.2227 22.8794 82.3651 22.422C82.4363 22.2109 82.4719 21.9999 82.5431 21.7888L82.7567 21.1907L82.9703 20.8741L83.2551 20.5574C83.3619 20.4871 83.4687 20.3815 83.5399 20.3112C83.6467 20.2408 83.7535 20.1704 83.8603 20.1001C83.9671 20.0297 84.1095 19.9945 84.2163 19.9242L84.6079 19.7834L85.0351 19.7131C85.1775 19.6779 85.3199 19.6779 85.4623 19.6779L86.4235 19.5724L86.8863 19.502C87.0287 19.4668 87.2067 19.4316 87.3847 19.3964C87.7051 19.3261 88.0255 19.2557 88.3459 19.1502L89.2715 18.8335L89.3783 18.7632C94.1487 17.7781 95.0743 13.6619 95.0743 13.6619C95.8219 10.8122 92.7959 5.99236 87.3847 5.64055ZM80.5495 27.453C80.3715 27.84 80.1223 28.1566 79.8375 28.4732C79.5527 28.7899 79.1967 29.1065 78.8407 29.5287C78.7695 29.6342 78.6983 29.7749 78.6271 29.8805C78.5559 29.986 78.5203 30.1267 78.4491 30.2675L78.3779 30.5137L78.3423 30.7248C78.3423 30.8656 78.3067 31.0063 78.3423 31.147C78.3423 31.2174 78.3423 31.2526 78.3423 31.3229C77.7015 28.614 79.4815 28.7547 80.6919 27.066L80.6563 27.2067L80.5495 27.453Z" fill="#76413B"/>
<path opacity="0.3" d="M79.4101 22.2811C77.2741 19.6073 76.3841 16.5817 76.3129 13.4858C76.2061 13.5561 76.0637 13.6265 75.9925 13.732C75.9213 13.8024 75.8501 13.8376 75.7789 13.908C75.7433 13.9431 75.7077 13.9431 75.7077 13.9783C75.6009 14.0487 75.5297 14.1542 75.4229 14.2598C74.1413 15.6318 74.2837 19.0796 74.2837 19.15C75.2093 24.5327 71.8985 23.4773 70.8305 27.3472C69.7625 31.2172 75.0313 33.715 73.7853 35.0871C71.4001 37.6553 70.2253 34.2779 70.2253 34.2779C69.7625 36.2833 71.8985 39.2033 74.4973 38.8515C76.9537 38.5349 79.6593 36.5999 78.7337 32.6244C78.7337 32.6244 78.7337 32.6244 78.7337 32.6596L79.0185 33.328C79.0897 33.5391 79.1965 33.7502 79.2677 33.9613L79.4457 34.5946L79.5881 35.2278C79.5881 35.4389 79.6237 35.65 79.6237 35.8963C79.5881 36.1074 79.6237 36.3185 79.5881 36.5295C79.5525 36.7406 79.5169 36.9517 79.4457 37.1628C79.3745 37.3739 79.3033 37.585 79.1965 37.7609C78.9829 38.1479 78.7337 38.5349 78.4133 38.8515C78.0929 39.1681 77.7369 39.4496 77.3453 39.6959C76.9537 39.9421 76.5265 40.118 76.0637 40.2588C76.5265 40.1532 76.9893 40.0477 77.4165 39.8366C77.8437 39.6255 78.2709 39.4144 78.6269 39.0978C79.0185 38.7811 79.3389 38.4293 79.5881 38.0072C79.6949 37.7961 79.8373 37.585 79.9085 37.3387C80.0153 37.1276 80.0865 36.8814 80.1221 36.6351C80.1933 36.3888 80.1933 36.1425 80.2289 35.8963C80.2289 35.65 80.2289 35.4037 80.2289 35.1575C80.1933 34.9112 80.1577 34.6649 80.1221 34.4187C80.0865 34.1724 80.0153 33.9613 79.9441 33.715C79.8729 33.4688 79.8017 33.2577 79.6949 33.0114L79.4457 32.3781C79.4101 32.2726 79.3745 32.1671 79.3389 32.0615L79.2677 31.7801C79.1965 31.569 79.1965 31.3931 79.1965 31.182C79.1965 30.795 79.3033 30.4784 79.5525 30.1969C79.8017 29.8803 80.1577 29.5988 80.5137 29.247C80.6917 29.0711 80.8697 28.86 81.0121 28.6841C81.1545 28.473 81.2969 28.2619 81.4037 28.0157L81.5816 27.6639L81.6885 27.312C81.7241 27.2065 81.7597 27.0658 81.7952 26.9602L81.8665 26.5732L81.9376 26.1862L81.9733 25.7992L82.0088 25.0956C81.0833 24.2161 80.1933 23.2662 79.4101 22.2811ZM80.6561 27.1713L80.5137 27.4528C80.3357 27.8398 80.0865 28.1564 79.8017 28.473C79.5169 28.7897 79.1609 29.1063 78.8049 29.5285C78.7337 29.634 78.6625 29.7747 78.5913 29.8803C78.5201 29.9858 78.4845 30.1265 78.4133 30.2673L78.3777 30.5135L78.3421 30.7246C78.3421 30.8653 78.3065 31.0061 78.3421 31.1468C78.3421 31.2172 78.3421 31.2523 78.3421 31.3227C77.7013 28.6137 79.4813 28.7545 80.6917 27.0658L80.6561 27.1713Z" fill="#352C38"/>
</g>
</svg>
