<svg width="24" height="25" viewBox="0 0 24 25" fill="none" xmlns="http://www.w3.org/2000/svg">
<path d="M23.6392 11.121L18.9579 6.43975C18.4717 5.95352 17.6855 5.95352 17.2044 6.43975C16.7182 6.92598 16.7182 7.71223 17.2044 8.19329L19.7649 10.7538H6.20726C5.5193 10.7538 4.96582 11.3072 4.96582 11.9952C4.96582 12.6832 5.5193 13.2367 6.20726 13.2367H19.7649L17.2044 15.7971C16.7182 16.2834 16.7182 17.0696 17.2044 17.5507C17.6906 18.0369 18.4769 18.0369 18.9579 17.5507L23.6392 12.8797C24.1203 12.3935 24.1203 11.6073 23.6392 11.121Z" fill="white"/>
<path d="M14.4835 19.0355C13.7955 19.0355 13.2421 19.589 13.2421 20.2769V21.5184H2.48289V2.48289H13.2421V3.72433C13.2421 4.4123 13.7955 4.96578 14.4835 4.96578C15.1715 4.96578 15.725 4.4123 15.725 3.72433V2.06907C15.725 0.92591 14.799 0 13.6559 0H2.06907C0.92591 0 0 0.92591 0 2.06907V21.9322C0 23.0753 0.92591 24.0013 2.06907 24.0013H13.6559C14.799 24.0013 15.725 23.0753 15.725 21.9322V20.2769C15.725 19.589 15.1715 19.0355 14.4835 19.0355Z" fill="white"/>
</svg>
