<svg width="86" height="78" viewBox="0 0 86 78" fill="none" xmlns="http://www.w3.org/2000/svg">
<g opacity="0.3">
<path d="M68.4369 76.3233C68.4369 76.3233 17.0736 62.386 31.0667 49.0003C44.461 36.2429 2.25634 38.8243 12.8485 13.9809C21.6566 -6.60735 38.0458 4.89535 42.9816 23.5079C49.7159 48.5571 67.9938 5.98018 73.0658 46.6506C76.9833 78.475 68.4369 76.3233 68.4369 76.3233Z" fill="#2835AC" fill-opacity="0.35"/>
<path d="M66.2396 74.293C63.6704 66.6837 60.1229 59.2406 55.4682 52.1972C50.7291 44.9703 44.7448 38.1596 37.4661 32.4492C33.1113 29.0264 28.325 25.9703 23.116 23.4978C22.5204 23.2305 22.7384 22.9136 23.334 23.1809C32.4365 27.5578 40.373 33.5522 46.8685 40.4466C53.0574 46.9904 57.9832 54.2676 61.7796 61.7775C63.9198 65.9998 65.6954 70.3387 67.1952 74.7107C67.2796 74.8943 66.2972 74.5767 66.2396 74.293Z" fill="#2835AC" fill-opacity="0.54"/>
<path d="M29.6802 16.0623C31.8828 20.455 33.4419 25.105 33.7005 30.0511C33.7318 30.203 33.5307 30.1489 33.4637 30.1309C29.156 29.0454 24.8662 27.8929 20.6659 26.4059C20.4648 26.3518 20.0805 26.1769 20.0001 25.9401C19.9867 25.7214 20.1208 25.7574 20.3218 25.8114C24.4552 27.2805 28.6109 28.3969 32.8516 29.4645C32.7666 29.5134 32.6996 29.4954 32.6147 29.5443C32.4052 24.6831 30.8461 20.033 28.6257 15.7073C28.5631 15.4037 29.5998 15.8256 29.6802 16.0623Z" fill="#2835AC" fill-opacity="0.54"/>
</g>
</svg>
