<svg width="20" height="20" viewBox="0 0 20 20" fill="none" xmlns="http://www.w3.org/2000/svg">
<circle cx="10" cy="10" r="10" fill="#FA941B" fill-opacity="0.08"/>
<mask id="mask0" mask-type="alpha" maskUnits="userSpaceOnUse" x="0" y="0" width="20" height="20">
<circle cx="10" cy="10" r="10" fill="#C4C4C4"/>
</mask>
<g mask="url(#mask0)">
<path d="M11.977 13.9597C11.0904 13.4856 11.3303 11.1767 11.3303 11.1767L10.0057 11.2592V11.1767L9.85964 11.2179L9.71361 11.1767V11.2592L8.38898 11.1767C8.38898 11.1767 8.62887 13.4856 7.74231 13.9597C6.85574 14.4339 1.63021 14.671 2.19344 20H9.71361H9.99523H17.5154C18.0891 14.671 12.8635 14.4339 11.977 13.9597Z" fill="#FFAC9D"/>
<path d="M8.21165 13.3619C9.2651 13.2073 10.329 13.0424 11.3824 12.8774C11.2364 12.0838 11.3303 11.1767 11.3303 11.1767L10.0056 11.2592V11.1767L9.85963 11.2179L9.7136 11.1767V11.2592L8.38897 11.1767C8.3994 11.1767 8.53499 12.5167 8.21165 13.3619Z" fill="#CC887F"/>
<path d="M12.8122 14.2277C12.0299 14.6813 10.9765 14.9596 9.82915 14.9596C8.69225 14.9596 7.64923 14.6916 6.86697 14.238C5.12512 14.7019 1.74574 15.6708 2.20467 20H9.72484H10.0065H17.5266C17.9856 15.6295 14.554 14.6813 12.8122 14.2277Z" fill="#7AA8CE"/>
<path d="M16.4202 16.0522C15.7214 16.382 14.9392 16.4954 14.1673 16.7325C13.0826 17.0623 11.9874 17.3922 10.8818 17.7014C8.68104 18.3198 6.46983 18.9074 4.26906 19.4949C3.64325 19.6598 3.00701 19.8248 2.3812 20H17.5258C17.724 18.1343 17.2129 16.8974 16.4202 16.0522Z" fill="#6F96BD"/>
<path d="M6.25079 14.4133C4.43594 14.9596 1.78667 16.1346 2.20388 20H8.44113L6.25079 14.4133Z" fill="#FFA65B"/>
<path d="M13.4268 14.3926L12.4359 19.9999H17.5258C17.9326 16.1037 15.2521 14.9286 13.4268 14.3926Z" fill="#FFA65B"/>
<path d="M7.89878 20H8.45158L6.26124 14.4133C5.79188 14.5576 5.27037 14.7328 4.75929 14.9905L7.89878 20Z" fill="#D68950"/>
<path d="M13.4268 14.3926L12.4359 19.9999H12.8948L15.5233 15.2997C14.8244 14.8565 14.0735 14.5885 13.4268 14.3926Z" fill="#D68950"/>
<path d="M7.27294 7.8061C7.01219 7.00211 6.39681 7.18765 6.33422 7.20826C6.27164 7.21857 5.6354 7.31134 5.75013 8.14625C5.86487 8.98116 6.35508 9.4347 6.81401 9.3007C7.28337 9.22854 7.5337 8.61009 7.27294 7.8061Z" fill="#CC887F"/>
<path d="M12.4776 7.8061C12.7383 7.00211 13.3537 7.18765 13.4163 7.20826C13.4789 7.21857 14.1151 7.31134 14.0004 8.14625C13.8857 8.98116 13.3955 9.4347 12.9365 9.3007C12.4672 9.22854 12.2168 8.61009 12.4776 7.8061Z" fill="#CC887F"/>
<path d="M6.6367 6.58981C6.96004 3.08524 9.65103 3.28109 9.91179 3.31201C10.1621 3.28109 12.8635 3.08524 13.1869 6.58981C13.5102 10.115 11.9248 12.4136 9.91179 12.2899C7.90919 12.4136 6.31337 10.115 6.6367 6.58981Z" fill="#FFAC9D"/>
<path d="M10.3811 8.23901C10.4229 8.32147 10.4646 8.40393 10.4959 8.4864C10.5272 8.56886 10.548 8.65132 10.5793 8.74408C10.5897 8.78531 10.6002 8.82655 10.6106 8.86778C10.621 8.90901 10.6315 8.95024 10.6419 9.00177C10.6628 9.08423 10.6732 9.177 10.6836 9.25946V9.30069L10.6628 9.32131C10.5897 9.38315 10.5167 9.45531 10.4437 9.51715C10.3707 9.579 10.2873 9.64084 10.2038 9.69238C10.256 9.60992 10.3186 9.52746 10.3811 9.45531C10.4437 9.38315 10.5063 9.30069 10.5689 9.22854L10.548 9.29039C10.5167 9.20793 10.4959 9.12546 10.475 9.0327C10.4646 8.99147 10.4542 8.95024 10.4437 8.8987C10.4333 8.85747 10.4229 8.81624 10.4229 8.7647C10.4124 8.68224 10.402 8.58947 10.3916 8.4967C10.3707 8.42455 10.3707 8.33178 10.3811 8.23901Z" fill="#CC887F"/>
<path d="M11.2886 10.3211C10.6419 10.9396 9.55719 10.8983 8.7332 10.352L11.2886 10.3211Z" fill="white"/>
<path d="M12.4568 7.05377C12.4568 7.05377 12.4255 7.04346 12.3838 7.01253C12.3629 7.00223 12.3316 6.98161 12.3003 6.961C12.269 6.94038 12.2273 6.91977 12.196 6.89915C12.1543 6.87854 12.1126 6.85792 12.0709 6.83731C12.05 6.827 12.0291 6.81669 11.9979 6.80638C11.977 6.79608 11.9457 6.78577 11.9248 6.77546C11.8727 6.75485 11.8205 6.74454 11.7788 6.73423C11.7267 6.72392 11.6745 6.71362 11.6224 6.71362L11.5494 6.70331C11.5285 6.70331 11.4972 6.70331 11.4763 6.71362C11.4242 6.71362 11.3825 6.73423 11.3303 6.73423C11.2782 6.74454 11.2364 6.76515 11.1947 6.77546L11.1321 6.79608L11.1009 6.81669C11.08 6.827 11.0591 6.83731 11.0383 6.84761C10.9966 6.86823 10.9548 6.87854 10.934 6.89915C10.9027 6.91977 10.8714 6.93007 10.8505 6.95069C10.7984 6.98161 10.7671 6.99192 10.7671 6.99192C10.7671 6.99192 10.7775 6.961 10.8088 6.90946C10.8192 6.88884 10.8401 6.85792 10.861 6.81669C10.8818 6.78577 10.9131 6.74454 10.9444 6.71362C10.9757 6.68269 11.0174 6.63115 11.0591 6.60023C11.1113 6.56931 11.1634 6.52808 11.2156 6.50746C11.2469 6.49716 11.2782 6.48685 11.3095 6.47654C11.3407 6.46623 11.372 6.45593 11.4138 6.45593C11.4451 6.45593 11.4868 6.44562 11.5181 6.44562C11.5494 6.44562 11.5911 6.44562 11.6224 6.44562C11.6954 6.44562 11.758 6.46623 11.831 6.48685C11.8623 6.49716 11.8935 6.50746 11.9248 6.52808C11.9561 6.53839 11.9874 6.559 12.0083 6.56931C12.0396 6.58992 12.0604 6.60023 12.0917 6.62085C12.1126 6.64146 12.1334 6.66208 12.1647 6.67238C12.2065 6.70331 12.2482 6.74454 12.2795 6.78577C12.342 6.85792 12.3942 6.93007 12.4151 6.9713C12.4463 7.02284 12.4568 7.05377 12.4568 7.05377Z" fill="#352C38"/>
<path d="M9.09824 7.05363C9.09824 7.05363 9.06694 7.04333 9.02522 7.0124C9.00436 7.0021 8.97307 6.98148 8.94178 6.96087C8.91049 6.94025 8.86877 6.91964 8.83748 6.89902C8.79576 6.87841 8.75404 6.85779 8.71232 6.83718C8.69146 6.82687 8.6706 6.81656 8.63931 6.80625C8.61845 6.79595 8.58716 6.78564 8.5663 6.77533C8.51414 6.75471 8.46199 6.74441 8.42027 6.7341C8.36812 6.72379 8.31597 6.71348 8.26382 6.71348L8.19081 6.70318C8.16995 6.70318 8.13866 6.70318 8.1178 6.71348C8.06565 6.71348 8.02393 6.7341 7.97177 6.7341C7.91962 6.74441 7.8779 6.76502 7.83618 6.77533L7.80489 6.78564L7.7736 6.80625C7.75274 6.81656 7.73188 6.82687 7.71102 6.83718C7.6693 6.85779 7.62758 6.8681 7.60672 6.88871C7.57543 6.90933 7.54414 6.91964 7.52328 6.94025C7.47113 6.97117 7.43983 6.98148 7.43983 6.98148C7.43983 6.98148 7.45026 6.95056 7.48156 6.89902C7.49199 6.87841 7.51285 6.84748 7.53371 6.80625C7.55457 6.77533 7.58586 6.7341 7.61715 6.70318C7.64844 6.67225 7.69016 6.62072 7.73188 6.58979C7.78403 6.55887 7.83618 6.51764 7.88833 6.49703C7.91962 6.48672 7.95091 6.47641 7.9822 6.4661C8.0135 6.4558 8.04479 6.44549 8.08651 6.44549C8.1178 6.44549 8.15952 6.43518 8.19081 6.43518C8.2221 6.43518 8.26382 6.43518 8.29511 6.43518C8.36812 6.43518 8.4307 6.4558 8.50371 6.47641C8.535 6.48672 8.5663 6.49703 8.59759 6.51764C8.62888 6.52795 8.66017 6.54856 8.68103 6.55887C8.71232 6.57949 8.73318 6.58979 8.76447 6.61041C8.78533 6.63102 8.80619 6.65164 8.83748 6.66195C8.8792 6.69287 8.92092 6.7341 8.95221 6.77533C9.01479 6.84748 9.06694 6.91964 9.08781 6.96087C9.08781 7.02271 9.09824 7.05363 9.09824 7.05363Z" fill="#352C38"/>
<path d="M8.99394 8.32147C8.99394 8.32147 8.98351 8.29055 8.97308 8.24932C8.95222 8.19778 8.93136 8.13594 8.88964 8.06379C8.84792 7.99163 8.79577 7.90917 8.71233 7.85764C8.67061 7.82671 8.62888 7.8061 8.57673 7.79579C8.55587 7.78548 8.52458 7.77518 8.50372 7.77518C8.48286 7.77518 8.45157 7.76487 8.43071 7.76487C8.40985 7.76487 8.37856 7.76487 8.3577 7.76487C8.32641 7.76487 8.29512 7.77518 8.27426 7.77518C8.23254 7.78548 8.18039 7.8061 8.1491 7.83702C8.10737 7.86794 8.07608 7.89887 8.05522 7.9401C8.03436 7.98133 8.0135 8.01225 7.99264 8.05348C7.96135 8.12563 7.95092 8.19778 7.94049 8.24932C7.93006 8.30086 7.93006 8.33178 7.93006 8.33178C7.93006 8.33178 7.91963 8.30086 7.91963 8.24932C7.91963 8.19778 7.9092 8.12563 7.93006 8.03286C7.94049 7.99163 7.95092 7.9401 7.98221 7.88856C8.0135 7.83702 8.04479 7.78548 8.08651 7.75456C8.12823 7.71333 8.19082 7.68241 8.2534 7.66179C8.28469 7.65149 8.31598 7.65149 8.33684 7.64118C8.37856 7.63087 8.39942 7.64118 8.43071 7.64118C8.462 7.64118 8.49329 7.64118 8.52458 7.65149C8.55587 7.65149 8.58716 7.66179 8.61845 7.6721C8.64975 7.68241 8.68104 7.69272 8.7019 7.71333C8.73319 7.72364 8.75405 7.74425 8.77491 7.76487C8.86878 7.84733 8.92093 7.9401 8.94179 8.03286C8.97308 8.11532 8.98351 8.19778 8.98351 8.23901C8.99394 8.29055 8.99394 8.32147 8.99394 8.32147Z" fill="#352C38"/>
<path d="M12.0083 8.2699C12.0083 8.2699 11.9978 8.23898 11.9874 8.19775C11.9666 8.14621 11.9457 8.08436 11.904 8.01221C11.8623 7.94006 11.8101 7.8576 11.7267 7.80606C11.6849 7.77514 11.6432 7.75452 11.5911 7.74422C11.5702 7.73391 11.5389 7.7236 11.5181 7.7236C11.4972 7.7236 11.4659 7.71329 11.4451 7.71329C11.4242 7.71329 11.3929 7.71329 11.372 7.71329C11.3408 7.71329 11.3095 7.7236 11.2886 7.7236C11.2469 7.73391 11.1947 7.75452 11.1634 7.78545C11.1217 7.81637 11.0904 7.84729 11.0696 7.88852C11.0487 7.92975 11.0278 7.96067 11.007 8.0019C10.9757 8.07406 10.9653 8.14621 10.9548 8.19775C10.9444 8.24929 10.9444 8.28021 10.9444 8.28021C10.9444 8.28021 10.934 8.24929 10.934 8.19775C10.934 8.14621 10.9235 8.07406 10.9444 7.98129C10.9548 7.94006 10.9653 7.88852 10.9966 7.83698C11.0278 7.78545 11.0591 7.73391 11.1009 7.70299C11.1426 7.66176 11.2052 7.63083 11.2677 7.61022C11.299 7.59991 11.3303 7.59991 11.3512 7.5896C11.3929 7.5793 11.4138 7.5896 11.4451 7.5896C11.4763 7.5896 11.5076 7.5896 11.5389 7.59991C11.5702 7.59991 11.6015 7.61022 11.6328 7.62053C11.6641 7.63083 11.6954 7.64114 11.7162 7.66176C11.7475 7.67206 11.7684 7.69268 11.7892 7.71329C11.8831 7.79575 11.9353 7.88852 11.9561 7.98129C11.9874 8.06375 11.9978 8.14621 11.9978 8.18744C12.0083 8.24929 12.0083 8.2699 12.0083 8.2699Z" fill="#352C38"/>
<path opacity="0.3" d="M5.07214 7.11548C5.2286 6.98148 5.41634 6.84749 5.55193 6.61041C5.58322 6.55887 5.60408 6.48672 5.63538 6.42488C5.65624 6.36303 5.6771 6.29088 5.68753 6.21873C5.69796 6.14657 5.70839 6.07442 5.70839 6.00227C5.70839 5.93011 5.70839 5.85796 5.70839 5.78581C5.69796 5.71366 5.69796 5.6415 5.68753 5.56935V5.51781C5.68753 5.4972 5.68753 5.5075 5.68753 5.4972V5.46627C5.68753 5.43535 5.68753 5.39412 5.68753 5.35289C5.69796 5.20859 5.70839 5.05397 5.73968 4.90967C5.77097 4.76536 5.80226 4.61075 5.86484 4.47675C5.87527 4.44583 5.89613 4.4046 5.90656 4.37367C5.92742 4.34275 5.93785 4.31183 5.95871 4.2809L5.99 4.23967L6.03172 4.19844L6.05258 4.17783V4.16752L6.06301 4.15721L6.10474 4.11598C6.17775 4.05414 6.27162 3.99229 6.36549 3.94076C6.36549 3.8686 6.36549 3.78614 6.36549 3.71399C6.2299 3.78614 6.09431 3.8686 5.96914 3.97168L5.92742 4.01291L5.91699 4.02322L5.90656 4.03352L5.89613 4.04383L5.87527 4.06445L5.83355 4.11598L5.79183 4.17783C5.76054 4.21906 5.75011 4.26029 5.72925 4.29121C5.70839 4.33244 5.69796 4.37367 5.6771 4.4046C5.61452 4.55921 5.58322 4.72413 5.55193 4.87874C5.53107 5.03336 5.51021 5.18797 5.51021 5.34258C5.51021 5.38381 5.51021 5.41474 5.51021 5.45597V5.48689V5.51781L5.52064 5.56935C5.53107 5.6415 5.5415 5.71366 5.5415 5.78581C5.56236 6.0538 5.5415 6.3218 5.4372 6.53826C5.3329 6.74441 5.15559 6.89902 5.00956 7.04333C4.86354 7.18764 4.73838 7.32163 4.6758 7.45563C4.63408 7.51748 4.61322 7.57932 4.58192 7.63086C4.56106 7.6824 4.5402 7.73394 4.52977 7.76486C4.50891 7.83701 4.48805 7.87824 4.48805 7.87824C4.48805 7.87824 4.50891 7.83701 4.5402 7.76486C4.57149 7.69271 4.62365 7.58963 4.70709 7.47625C4.79053 7.37317 4.91569 7.24948 5.07214 7.11548Z" fill="#352C38"/>
<path d="M11.7475 3.58002C11.7475 3.58002 12.9261 3.61094 13.312 5.054C13.6979 6.49706 13.2807 6.77536 13.2807 7.94012C13.2807 7.94012 13.2807 8.66164 13.1034 8.89872L12.8635 6.52798C12.8531 6.53829 11.226 5.68276 11.7475 3.58002Z" fill="#965450"/>
<path d="M9.60931 1.65256C9.41113 1.62164 9.20253 1.61133 8.97306 1.65256C8.82704 1.68348 8.67059 1.73502 8.53499 1.81748C8.38897 1.89994 8.27424 2.01332 8.15951 2.13702C7.94047 2.3844 7.78402 2.6627 7.58585 2.92039C7.3981 3.17808 7.15821 3.39454 6.86616 3.51823C6.79315 3.54915 6.72014 3.58007 6.6367 3.611C6.56369 3.64192 6.48024 3.67284 6.3968 3.71407C6.24035 3.79653 6.09433 3.87899 5.9483 4.00268L5.90658 4.04391L5.89615 4.05422L5.88572 4.06453V4.07484L5.86486 4.09545L5.82314 4.14699L5.78142 4.20883C5.75013 4.25007 5.7397 4.2913 5.71884 4.32222C5.69798 4.36345 5.68755 4.40468 5.66669 4.4356C5.60411 4.59021 5.57282 4.75514 5.54153 4.90975C5.52067 5.06436 5.49981 5.21898 5.49981 5.37359C5.49981 5.41482 5.49981 5.44574 5.49981 5.48697V5.51789V5.54882L5.51024 5.60036C5.52067 5.67251 5.5311 5.74466 5.5311 5.81681C5.55196 6.08481 5.5311 6.35281 5.42679 6.56927C5.32249 6.77542 5.14518 6.93003 4.99916 7.07434C4.85313 7.21864 4.72797 7.35264 4.66539 7.48664C4.62367 7.54848 4.60281 7.61033 4.57152 7.66187C4.55066 7.71341 4.5298 7.76494 4.51937 7.79587C4.49851 7.86802 4.47765 7.90925 4.47765 7.90925C4.47765 7.90925 4.49851 7.86802 4.5298 7.79587C4.56109 7.72371 4.61324 7.62064 4.69668 7.50725C4.78012 7.38356 4.89485 7.25987 5.05131 7.13618C5.20776 7.00218 5.3955 6.86819 5.5311 6.63111C5.56239 6.57957 5.58325 6.50742 5.61454 6.44558C5.6354 6.38373 5.65626 6.31158 5.66669 6.23942C5.67712 6.16727 5.68755 6.09512 5.68755 6.02297C5.68755 5.95081 5.68755 5.87866 5.68755 5.80651C5.67712 5.73435 5.67712 5.6622 5.66669 5.59005V5.53851C5.66669 5.51789 5.66669 5.5282 5.66669 5.51789V5.48697C5.66669 5.45605 5.66669 5.41482 5.66669 5.37359C5.67712 5.22928 5.68755 5.07467 5.71884 4.93036C5.75013 4.78606 5.78142 4.63144 5.844 4.49745C5.85443 4.46652 5.87529 4.42529 5.88572 4.39437C5.90658 4.36345 5.91701 4.33253 5.93787 4.3016L5.96916 4.26037L6.01089 4.21914L6.03175 4.19853V4.18822L6.04218 4.17791L6.0839 4.13668C6.16734 4.06453 6.27164 3.99238 6.37594 3.94084C6.32379 3.97176 6.28207 4.00268 6.24035 4.03361C6.21949 4.05422 6.19863 4.06453 6.17777 4.08514C6.16734 4.09545 6.15691 4.09545 6.15691 4.10576C6.12562 4.12637 6.10476 4.1573 6.07347 4.18822C5.69798 4.59021 5.7397 5.60036 5.7397 5.62097C6.04218 7.18772 5.07217 6.87849 4.75926 8.01232C4.44636 9.14616 5.99003 9.87799 5.62497 10.28C4.92614 11.0324 4.58195 10.0429 4.58195 10.0429C4.44636 10.6304 5.07217 11.486 5.83357 11.3829C6.55326 11.2901 7.34595 10.7232 7.07477 9.55846C7.07477 9.55846 7.07477 9.55846 7.07477 9.56877L7.15821 9.76461C7.17907 9.82646 7.21036 9.8883 7.23122 9.95015L7.28337 10.1357L7.32509 10.3212C7.32509 10.3831 7.33552 10.4449 7.33552 10.5171C7.32509 10.5789 7.33552 10.6408 7.32509 10.7026C7.31466 10.7644 7.30423 10.8263 7.28337 10.8881C7.26251 10.95 7.24165 11.0118 7.21036 11.0634C7.14778 11.1767 7.07477 11.2901 6.98089 11.3829C6.88702 11.4757 6.78272 11.5581 6.66799 11.6303C6.55326 11.7024 6.42809 11.754 6.2925 11.7952C6.42809 11.7643 6.56369 11.7334 6.68885 11.6715C6.81401 11.6097 6.93917 11.5478 7.04348 11.455C7.15821 11.3623 7.25208 11.2592 7.32509 11.1355C7.35638 11.0737 7.3981 11.0118 7.41896 10.9397C7.45025 10.8778 7.47111 10.8057 7.48154 10.7335C7.5024 10.6614 7.5024 10.5892 7.51283 10.5171C7.51283 10.4449 7.51283 10.3728 7.51283 10.3006C7.5024 10.2284 7.49197 10.1563 7.48154 10.0841C7.47111 10.012 7.45025 9.95015 7.42939 9.87799C7.40853 9.80584 7.38767 9.74399 7.35638 9.67184L7.28337 9.48631C7.27294 9.45538 7.26251 9.42446 7.25208 9.39354L7.23122 9.31108C7.21036 9.24923 7.21036 9.19769 7.21036 9.13585C7.21036 9.02247 7.24165 8.9297 7.31466 8.84724C7.38767 8.75447 7.49197 8.67201 7.59628 8.56893C7.64843 8.5174 7.70058 8.45555 7.7423 8.40401C7.78402 8.34217 7.82574 8.28032 7.85703 8.20817L7.90918 8.10509L7.94047 8.00202C7.9509 7.97109 7.96133 7.92986 7.97176 7.89894L7.99262 7.78556L8.01348 7.67217L8.02391 7.55879L8.03434 7.35264L8.04478 7.14649C8.04478 7.07434 8.04478 7.01249 8.06564 6.95065C8.0865 6.82695 8.09693 6.70326 8.13865 6.56927C8.15951 6.50742 8.16994 6.44558 8.1908 6.38373L8.25338 6.2085L8.31596 6.11573L8.3994 6.02297C8.43069 6.00235 8.46198 5.97143 8.48284 5.95081C8.51413 5.9302 8.54542 5.90958 8.57672 5.88897C8.60801 5.86835 8.64973 5.85804 8.68102 5.83743L8.79575 5.7962L8.92091 5.77558C8.96263 5.76528 9.00435 5.76528 9.04607 5.76528L9.32769 5.73435L9.46328 5.71374C9.505 5.70343 9.55715 5.69312 9.60931 5.68282C9.70318 5.6622 9.79705 5.64159 9.89092 5.61066L10.1621 5.51789L10.1934 5.49728C11.591 5.20867 11.8622 4.00268 11.8622 4.00268C12.0813 3.16777 11.1947 1.75564 9.60931 1.65256ZM7.60671 8.04325C7.55456 8.15663 7.48154 8.2494 7.3981 8.34217C7.31466 8.43493 7.21036 8.5277 7.10606 8.65139C7.0852 8.68232 7.06434 8.72355 7.04348 8.75447C7.02262 8.78539 7.01218 8.82662 6.99132 8.86785L6.97046 8.94L6.96003 9.00185C6.96003 9.04308 6.9496 9.08431 6.96003 9.12554C6.96003 9.14616 6.96003 9.15646 6.96003 9.17708C6.77229 8.3834 7.2938 8.42463 7.64843 7.92986L7.638 7.97109L7.60671 8.04325Z" fill="#76413B"/>
<path opacity="0.3" d="M7.27291 6.528C6.6471 5.74463 6.38634 4.85818 6.36548 3.95111C6.33419 3.97173 6.29247 3.99234 6.27161 4.02326C6.25075 4.04388 6.22989 4.05419 6.20903 4.0748C6.1986 4.08511 6.18817 4.08511 6.18817 4.09542C6.15688 4.11603 6.13602 4.14695 6.10473 4.17788C5.72924 4.57987 5.77096 5.59001 5.77096 5.61063C6.04215 7.18768 5.07214 6.87846 4.75923 8.01229C4.44632 9.14612 5.98999 9.87796 5.62494 10.28C4.92611 11.0324 4.58192 10.0429 4.58192 10.0429C4.44632 10.6304 5.07214 11.4859 5.83354 11.3829C6.55323 11.2901 7.34592 10.7232 7.07473 9.55842C7.07473 9.55842 7.07473 9.55842 7.07473 9.56873L7.15818 9.76457C7.17904 9.82642 7.21033 9.88826 7.23119 9.95011L7.28334 10.1356L7.32506 10.3212C7.32506 10.383 7.33549 10.4449 7.33549 10.517C7.32506 10.5789 7.33549 10.6407 7.32506 10.7026C7.31463 10.7644 7.3042 10.8263 7.28334 10.8881C7.26248 10.9499 7.24162 11.0118 7.21033 11.0633C7.14775 11.1767 7.07474 11.2901 6.98086 11.3829C6.88699 11.4756 6.78269 11.5581 6.66796 11.6302C6.55323 11.7024 6.42806 11.7539 6.29247 11.7952C6.42806 11.7642 6.56366 11.7333 6.68882 11.6715C6.81398 11.6096 6.93914 11.5478 7.04344 11.455C7.15818 11.3622 7.25205 11.2592 7.32506 11.1355C7.35635 11.0736 7.39807 11.0118 7.41893 10.9396C7.45022 10.8778 7.47108 10.8056 7.48151 10.7335C7.50237 10.6613 7.50237 10.5892 7.5128 10.517C7.5128 10.4449 7.5128 10.3727 7.5128 10.3006C7.50237 10.2284 7.49194 10.1563 7.48151 10.0841C7.47108 10.012 7.45022 9.95011 7.42936 9.87796C7.4085 9.8058 7.38764 9.74396 7.35635 9.67181L7.28334 9.48627C7.27291 9.45535 7.26248 9.42442 7.25205 9.3935L7.23119 9.31104C7.21033 9.2492 7.21033 9.19766 7.21033 9.13581C7.21033 9.02243 7.24162 8.92966 7.31463 8.8472C7.38764 8.75443 7.49194 8.67197 7.59625 8.5689C7.6484 8.51736 7.70055 8.45551 7.74227 8.40398C7.78399 8.34213 7.82571 8.28029 7.857 8.20813L7.90915 8.10506L7.94044 8.00198C7.95087 7.97106 7.9613 7.92983 7.97173 7.89891L7.99259 7.78552L8.01345 7.67214L8.02388 7.55876L8.03431 7.3526C7.76313 7.09492 7.50237 6.81661 7.27291 6.528ZM7.63797 7.96075L7.59625 8.04321C7.54409 8.15659 7.47108 8.24936 7.38764 8.34213C7.3042 8.4349 7.1999 8.52767 7.0956 8.65136C7.07473 8.68228 7.05387 8.72351 7.03301 8.75443C7.01215 8.78536 7.00172 8.82659 6.98086 8.86782L6.97043 8.93997L6.96 9.00181C6.96 9.04304 6.94957 9.08428 6.96 9.12551C6.96 9.14612 6.96 9.15643 6.96 9.17704C6.77226 8.38336 7.29377 8.42459 7.6484 7.92983L7.63797 7.96075Z" fill="#352C38"/>
</g>
</svg>
