<svg width="129" height="201" viewBox="0 0 129 201" fill="none" xmlns="http://www.w3.org/2000/svg">
<path d="M78.66 34.5049C73.7363 31.0098 67.1404 31.3275 62.9135 35.5036C59.8478 34.1418 56.1782 34.051 53.0661 35.322C46.9811 37.7732 42.3362 46.3068 46.2844 51.7084C46.7489 56.8377 48.2353 61.0592 53.3448 61.74C55.6208 67.5048 64.7715 70.2737 70.8564 65.9161C75.3621 67.9587 80.7502 65.9615 84.5591 62.7386C85.4417 61.967 86.2778 60.696 86.6029 60.5598C86.6029 60.5598 99.0515 59.9244 99.4696 48.2587C99.8412 36.0029 88.1357 26.0621 78.66 34.5049Z" fill="#13375B"/>
<path d="M13.0264 172.678C12.6084 177.943 12.9799 182.755 13.0728 183.299C13.1193 183.572 13.8625 184.752 13.8625 185.024C11.7258 191.016 6.98791 193.649 2.71454 195.283C4.29383 192.423 6.94146 189.336 6.89501 188.565C6.84856 187.385 6.75568 182.028 5.45508 174.993C8.56721 175.492 10.1465 173.903 13.0264 172.678Z" fill="#F7A491"/>
<path d="M37.8306 99.6875L54.7383 117.027C54.7383 117.027 44.0084 125.016 39.9673 127.967C35.9262 130.917 16.3243 140.949 15.9063 141.675C15.8134 141.811 16.5102 143.808 16.5102 146.214C16.4637 152.614 15.7205 165.006 14.6057 175.583C12.2833 177.398 7.82408 177.353 5.08355 177.671C0.345673 163.917 1.27465 138.77 1.69269 135.819C2.38944 130.917 37.8306 99.6875 37.8306 99.6875Z" fill="#355389"/>
<path d="M88.6469 139.224C87.8572 139.587 81.0755 145.942 78.0563 149.573C76.384 147.349 75.6873 145.216 73.597 143.355C76.5699 141.221 82.7941 135.774 83.7232 134.231C85.8599 130.645 86.9282 130.373 86.9282 130.373C86.9282 130.373 97.9834 139.451 98.355 140.994C98.773 142.538 91.8984 137.726 88.6469 139.224Z" fill="#F7A491"/>
<path d="M83.2586 135.048C82.2832 134.685 85.0237 130.554 85.6275 129.556C86.3243 128.466 87.114 128.375 87.2998 128.375C87.8107 128.421 100.073 138.498 101.792 141.13C101.931 141.312 102.071 141.811 102.071 141.902C102.442 144.853 90.6906 141.04 89.4365 139.36C88.2752 137.862 87.6713 136.682 83.2586 135.048Z" fill="#184655"/>
<path d="M33.1392 103.501L50.7437 98.916C50.6508 98.916 50.7437 99.5969 50.7437 99.6877C51.394 106.088 60.0801 104.862 61.9845 116.074C63.3316 124.018 58.5937 149.437 58.5937 149.437C58.5937 149.437 67.1404 144.898 76.0588 139.996C76.8949 139.542 81.865 146.668 81.865 146.668C68.3017 163.463 50.1863 168.32 48.096 167.185C41.0357 163.372 36.4836 113.078 36.4836 113.078C35.4617 109.946 33.1392 103.501 33.1392 103.501Z" fill="#466EB6"/>
<path d="M65.6541 65.8254C65.6541 65.8254 86.6494 64.4182 91.2943 64.3728C95.9393 64.3274 112.475 61.377 113.126 61.2408C113.776 61.1046 117.306 53.2973 118.096 54.0235C118.885 54.7498 116.052 57.9272 117.12 58.5627C118.142 59.1982 128.268 56.6109 128.175 57.3825C128.083 58.835 122.044 59.2436 122.137 59.9244C122.23 60.6053 128.361 58.9712 128.919 60.0606C129.476 61.1954 122.927 61.1046 122.741 61.6493C122.555 62.194 128.872 62.5572 128.315 63.692C128.036 64.3274 122.694 63.238 122.787 64.0097C122.88 64.8268 126.828 66.2793 126.457 66.9602C126.039 67.641 123.298 65.2807 121.115 65.4622C118.932 65.6438 117.213 64.5998 113.822 65.9161C110.432 67.2325 98.9585 73.2242 91.4336 73.5873C83.9088 73.9051 67.3727 74.6768 67.3727 74.6768L65.6541 65.8254Z" fill="#F7A491"/>
<path d="M42.3827 60.6506C42.3827 60.6506 37.1339 40.7237 35.7404 36.4114C34.3004 32.0992 32.0244 15.8036 31.9315 15.1681C31.885 14.5326 38.2951 8.76787 37.3661 8.26856C36.3907 7.76925 34.2075 11.3552 33.2785 10.6289C32.3031 9.90267 31.6992 -0.310482 30.956 0.00726054C29.5625 0.597353 31.0954 6.27133 30.3986 6.4075C29.7019 6.54368 29.3767 0.325004 28.1226 0.188828C26.8684 0.052653 29.0051 6.04437 28.5406 6.4075C28.0761 6.77063 25.7072 1.00588 24.7782 1.86833C24.2672 2.32224 27.0078 6.9522 26.1717 7.08838C25.382 7.22455 22.6879 4.04713 22.177 4.63722C21.6196 5.22731 24.8246 7.04298 25.3356 9.13101C25.8465 11.219 27.3794 12.4446 27.1936 16.0306C27.0078 19.6165 24.7317 32.0992 26.7755 39.1803C28.8193 46.2615 33.2785 61.8762 33.2785 61.8762L42.3827 60.6506Z" fill="#F7A491"/>
<path d="M33.1392 82.6203C33.3715 79.0797 34.254 69.5475 34.5327 68.3673C34.0218 64.5998 31.0026 58.6534 30.3987 57.0193C30.3987 57.0193 36.3907 51.7539 40.1996 52.344C40.1996 52.344 43.4975 58.1541 46.2845 60.1514C46.331 60.1514 47.3064 60.7415 47.7245 60.8322C50.6508 61.1954 60.8698 62.2848 62.6813 63.1018L59.2905 78.989C58.5937 79.8514 55.2958 98.1897 53.9487 99.5514C52.6017 100.913 35.2759 105.589 32.8141 103.455C32.8141 103.364 32.7212 89.7922 33.1392 82.6203Z" fill="#F7CC7F"/>
<path d="M57.5254 62.648C58.0363 62.4664 59.1047 62.3757 60.684 62.5572C65.3289 63.1019 73.086 63.9644 73.086 63.9644C73.086 63.9644 73.597 73.8598 71.739 75.9932C71.739 75.9932 59.3369 76.1748 59.5227 77.2642L57.5254 62.648Z" fill="#F7CC7F"/>
<path d="M55.2958 55.8392C55.2958 55.8392 53.4377 61.2408 53.3448 63.465C53.2519 65.6892 51.2082 72.6342 46.656 72.0441C42.1039 71.454 47.0741 62.9203 47.8173 60.8323C48.5605 58.7443 49.6288 52.1171 49.6288 52.1171L55.2958 55.8392Z" fill="#F7A491"/>
<path d="M49.0251 55.4307C49.3503 53.615 49.5825 52.1171 49.5825 52.1171L55.2493 55.8392C55.2493 55.8392 54.8777 56.9286 54.4596 58.3812C51.7192 58.5627 49.9541 57.2464 49.0251 55.4307Z" fill="#F47458"/>
<path d="M59.7086 40.7691C59.7086 40.7691 61.8917 42.4032 62.3098 45.4445C62.7743 48.4403 60.7305 55.7484 54.3668 56.747C48.0496 57.7002 46.2381 51.4362 48.1425 47.0332C50.0934 42.5394 53.6701 37.0924 59.7086 40.7691Z" fill="#F7A491"/>
<path d="M47.678 45.0814C47.6316 46.3523 48.1425 47.3963 48.8858 47.3963C49.5825 47.4417 50.2329 46.4431 50.2793 45.1721C50.3258 43.9012 49.8148 42.8572 49.0716 42.8572C48.3748 42.8572 47.7245 43.8558 47.678 45.0814Z" fill="#F7A491"/>
<path d="M13.0728 183.481C13.7231 182.619 16.6495 186.658 17.3927 187.521C18.2288 188.474 18.0894 189.291 17.9965 189.473C17.8107 189.927 4.99059 199.504 1.73912 200.457C1.41398 200.548 0.856603 200.412 0.717254 200.276C-0.676233 199.232 4.47966 190.017 7.03438 188.565C8.75302 187.702 10.2859 187.385 13.0728 183.481Z" fill="#184655"/>
<path d="M59.0583 40.3152C59.0583 40.3152 58.9654 48.7581 61.3807 50.6191C63.796 52.4802 62.1703 56.0208 62.1703 56.0208C62.1703 56.0208 65.7932 47.8048 64.0747 44.7636C62.4025 41.7223 59.0583 40.3152 59.0583 40.3152Z" fill="#13375B"/>
<path d="M59.662 51.6177C58.7795 52.6163 58.5937 53.8873 59.244 54.4774C59.8943 55.0675 61.102 54.7497 61.9845 53.7511C62.8671 52.7525 63.0528 51.4815 62.4025 50.8914C61.7522 50.3013 60.5446 50.6191 59.662 51.6177Z" fill="#F7A491"/>
</svg>
