<svg width="100" height="190" viewBox="0 0 100 190" fill="none" xmlns="http://www.w3.org/2000/svg">
<path d="M81.3115 35.1447C82.0497 31.8753 82.7879 28.5715 80.8193 24.958C79.2726 22.0327 76.5308 20.3464 73.4022 20.0023C64.4736 18.9698 63.7002 26.7476 55.2286 30.189C51.6079 31.6344 47.9169 31.2215 44.6829 33.1143C38.8477 36.4869 35.7543 46.0542 39.621 54.9332C49.1121 76.7177 71.4337 62.47 74.3162 58.1682C76.4605 54.9676 80.8545 37.244 81.3115 35.1447Z" fill="#13375B"/>
<path d="M75.8628 51.5606L74.9489 46.9146C74.9489 46.9146 77.6556 47.534 79.3429 50.1496C81.0653 52.7651 83.9127 61.5752 84.4048 61.8162C84.8969 62.0915 90.3103 53.9008 91.2595 52.6274C92.4195 51.0443 92.8764 49.2204 93.6146 47.8094C94.3528 46.4328 96.9189 45.951 97.9032 46.123C98.8875 46.2951 96.5674 50.356 96.5674 50.356C96.5674 50.356 90.697 60.3363 88.7285 65.8083C86.76 71.2802 80.6435 73.8957 79.6592 73.1042C78.7101 72.3471 75.8628 51.5606 75.8628 51.5606Z" fill="#9C432F"/>
<path d="M76.9174 65.5673L84.4048 61.4031C84.4048 61.4031 80.995 47.3964 74.9489 46.949L76.9174 65.5673Z" fill="#F7CC7F"/>
<path d="M93.6849 48.5665C93.6849 48.5665 93.931 47.4996 94.5989 47.2932C95.2668 47.0867 96.3916 47.2587 96.462 47.2932C96.5323 47.3276 97.7977 46.6393 97.7977 46.6393L96.7432 48.5665C96.7432 48.5665 94.7043 50.9411 94.0013 50.0463C93.3686 49.1515 93.6849 48.5665 93.6849 48.5665Z" fill="#9C432F"/>
<path d="M98.1845 46.7424C98.1845 46.7424 98.9227 50.4248 98.7469 51.2164C98.5712 52.0079 98.079 51.5605 98.0087 51.4229C97.6572 50.7346 97.376 48.3599 97.376 48.3599L98.1845 46.7424Z" fill="#9C432F"/>
<path d="M96.6025 49.8054C96.6025 49.8054 96.9541 52.0767 97.3056 52.352C97.5517 52.5241 97.8329 52.4208 97.9384 51.9735C98.0438 51.5261 97.4814 48.7041 97.4814 48.7041L96.6025 49.8054Z" fill="#9C432F"/>
<path d="M94.4583 56.3098L93.228 55.7248L98.4657 45.2283C99.1336 45.538 99.4148 46.364 99.0984 47.0178L94.4583 56.3098Z" fill="#184655"/>
<path d="M45.6671 172.7C45.6671 172.7 45.0343 178.998 43.4173 180.168C41.7652 181.304 39.6209 185.606 40.6755 187.912C41.027 188.634 41.6949 189.047 42.4682 189.288C44.7531 189.977 47.2138 188.806 48.1629 186.673C48.7253 185.468 49.1823 183.885 49.2878 181.855C49.5338 176.727 51.1508 174.111 51.1508 174.111L45.6671 172.7Z" fill="#B75742"/>
<path d="M70.7305 175.281C70.7305 175.281 71.2578 181.648 70.836 183.713C70.6251 184.814 69.3596 187.086 69.922 188.153C70.4845 189.185 71.1524 189.46 71.1524 189.46L85.9514 189.701C86.7599 189.701 86.2327 189.219 85.5648 188.738C84.5102 187.98 83.6314 187.464 80.2568 185.847C80.0459 185.743 79.2374 185.227 78.921 185.055C78.1828 184.608 77.4446 183.919 76.8119 183.231C75.7573 182.061 75.6518 176.486 75.6518 176.486L70.7305 175.281Z" fill="#B75742"/>
<path d="M82.3307 90.6556C82.3307 90.6556 84.1937 100.98 82.9634 107.76C81.7331 114.539 75.8627 177.346 75.8627 177.346L69.3244 177.69C69.3244 177.69 67.9534 151.466 68.1995 147.818C68.4455 144.17 70.3789 138.079 70.3789 138.079L69.7462 116.914L77.9718 89.0725L82.3307 90.6556Z" fill="#6391D7"/>
<path d="M63.1376 88.4875C63.1376 88.4875 58.0054 96.0588 56.7751 102.288C55.5448 108.551 57.6891 127.755 55.3339 135.945C54.0684 140.385 49.2174 147.233 48.4792 152.981C47.741 158.728 44.8585 173.733 44.8585 173.733L51.3968 175.006L66.5474 137.494L78.4288 103.596L81.4871 86.1473L63.1376 88.4875Z" fill="#86B1F2"/>
<path d="M67.2856 45.4691C67.2856 45.4691 63.7704 46.0542 61.1339 48.5664C55.5096 53.9695 64.4383 74.756 64.9304 78.404C65.4225 82.052 60.923 90.5524 60.923 90.5524C60.923 90.5524 77.7258 93.5809 82.2956 90.6556C82.2956 90.6556 82.8229 61.3687 82.3307 58.7876C81.8386 56.1721 76.3548 48.1535 75.3706 47.0866C74.4215 46.0542 67.2856 45.4691 67.2856 45.4691Z" fill="#FAE0B2"/>
<path d="M60.9231 51.0099C61.3449 49.7365 62.8565 49.117 64.122 49.6333C65.8444 50.356 68.2699 51.767 69.4299 54.1416C71.3985 58.1337 78.2531 71.8652 80.3622 72.3814C82.4714 72.8976 91.1188 58.1337 91.1188 58.1337C91.1188 58.1337 90.8727 55.5182 91.6109 54.0384C92.3491 52.5585 94.5637 51.0099 94.8801 51.5261C95.1965 52.0423 93.6498 53.3501 93.6498 53.6254C93.6498 53.9007 94.3176 54.0728 95.1965 53.5221C96.1104 53.0059 96.5674 51.9391 96.5674 51.9391C96.5674 51.9391 98.0438 54.5546 96.4971 56.8948C94.9504 59.235 94.2825 60.1986 94.2825 60.1986C94.2825 60.1986 84.2641 82.0175 80.5732 82.2584C77.1986 82.5682 57.4782 61.1966 60.9231 51.0099Z" fill="#B75742"/>
<path d="M69.5705 36.5902C69.5705 36.5902 69.5353 36.7967 69.465 37.1064C69.1487 38.6895 67.9886 44.0238 67.2153 45.4692C66.2662 47.2243 70.4844 52.8339 74.527 52.1801C75.7221 51.9736 73.5075 47.0178 73.613 46.5016C73.8239 45.5036 74.1051 44.127 74.3863 42.716C74.5621 41.9245 74.7027 41.1329 74.8785 40.3758C75.3003 38.2421 75.6518 36.4869 75.6518 36.4869L69.5705 36.5902Z" fill="#B75742"/>
<path d="M69.4651 37.1408C69.5354 36.7967 69.5705 36.6246 69.5705 36.6246L75.6518 36.4869C75.6518 36.4869 75.3003 38.2421 74.8785 40.3758C74.7379 41.1329 74.5621 41.9245 74.4215 42.716C73.4724 42.5783 72.4881 42.131 71.5039 41.305C70.4142 40.3758 69.7111 39.2745 69.2893 38.1044C69.3596 37.6915 69.3948 37.3817 69.4651 37.1408Z" fill="#9C432F"/>
<path d="M73.2263 22.4457C73.2263 22.4457 70.7305 22.7899 68.9377 25.0613C67.145 27.3326 65.2116 34.3532 69.6759 38.1733C74.1403 41.9933 78.5694 37.6571 79.2022 33.0799C79.8701 28.5027 79.7295 22.2737 73.2263 22.4457Z" fill="#B75742"/>
<path d="M80.6435 31.5311C80.1162 32.5291 79.2023 33.1142 78.6398 32.77C78.0774 32.4603 78.0422 31.359 78.5695 30.361C79.0968 29.363 80.0108 28.778 80.5732 29.1221C81.1356 29.4318 81.1708 30.4987 80.6435 31.5311Z" fill="#B75742"/>
<path d="M73.9646 22.3424C73.9646 22.3424 70.133 29.0188 67.3911 29.3286C64.6493 29.6383 64.2977 33.183 64.2977 33.183C64.2977 33.183 65.282 24.9923 67.9887 23.4092C70.6954 21.8606 73.9646 22.3424 73.9646 22.3424Z" fill="#13375B"/>
<path d="M68.305 30.9117C68.5159 32.0818 68.0941 33.1831 67.3208 33.3552C66.5474 33.5272 65.7389 32.6669 65.528 31.4968C65.3171 30.3267 65.7389 29.2254 66.5123 29.0533C67.2505 28.8812 68.059 29.7416 68.305 30.9117Z" fill="#B75742"/>
<path d="M48.6199 185.537C45.0695 186.156 42.7143 184.126 41.484 182.612C40.57 184.332 40.0427 186.501 40.6755 187.912C41.2731 189.151 42.8549 189.495 44.1907 189.564C45.6319 189.632 46.9326 188.875 47.6708 187.671C48.0223 187.086 48.3387 186.397 48.6199 185.537Z" fill="#F47458"/>
<path d="M78.9562 185.055C75.0544 186.053 72.1367 185.365 70.5197 184.745C70.0979 185.916 69.5355 187.361 69.8518 188.187C70.2034 189.219 70.7306 189.426 71.1876 189.46C74.7731 189.564 84.2994 189.667 87.0061 189.701C87.3928 189.701 87.6037 189.288 87.3576 188.978C86.6546 188.187 79.2375 185.227 78.9562 185.055Z" fill="#F47458"/>
<path d="M35.625 27.626L7.12752 28.742C3.77908 28.8815 0.929332 26.3008 0.786845 23.0226L0.145652 7.32904C0.00316516 4.05084 2.63918 1.26088 5.98763 1.12138L34.4851 0.0053999C37.8335 -0.134098 40.6833 2.44661 40.8257 5.72482L41.4669 21.4183C41.6094 24.6965 38.9734 27.4865 35.625 27.626Z" fill="#FA941B"/>
<path d="M39.7572 9.83997L51.2987 22.5343L36.48 19.1166L39.7572 9.83997Z" fill="#FA941B"/>
<path d="M30.1633 18.447C30.1112 18.4078 26.2921 15.7124 25.2462 15.9047C24.7452 15.991 24.4607 16.3245 23.8876 16.9954C23.7955 17.1052 23.575 17.3603 23.4027 17.5447C23.0421 17.427 22.6854 17.2896 22.3448 17.1209C20.5775 16.2774 19.1508 14.8807 18.2932 13.1544C18.1249 12.8209 17.9806 12.4717 17.8604 12.1186C18.0488 11.9499 18.3133 11.7302 18.4255 11.64C19.1067 11.0828 19.4474 10.8004 19.5355 10.3099C19.7159 9.29378 16.9668 5.53125 16.9387 5.49594C16.6862 5.14284 16.2855 4.9192 15.8447 4.88782C14.7266 4.88782 11.5447 8.92891 11.5447 9.60765C11.5447 9.64689 11.6048 13.6684 16.6662 18.7099C21.8118 23.6612 25.9194 23.7201 25.9595 23.7201C26.6528 23.7201 30.7804 20.6049 30.7804 19.5142C30.7484 19.0866 30.52 18.6942 30.1633 18.447Z" fill="white"/>
</svg>
