<svg width="168" height="209" viewBox="0 0 168 209" fill="none" xmlns="http://www.w3.org/2000/svg">
<path d="M61.6509 44.0936C61.6509 44.0936 60.1351 41.4837 58.8359 40.214C57.5366 38.9444 55.7682 35.2765 56.3095 31.0796C56.8509 26.8827 60.1712 25.2251 61.9757 24.7313C63.7802 24.2376 70.5652 24.2728 72.8389 25.3661C75.1126 26.4595 73.9577 34.8886 73.9577 34.8886L70.3486 41.3779L61.6509 44.0936Z" fill="#355389"/>
<path d="M98.8234 106.271C98.8234 106.271 98.7873 106.236 98.7151 106.201C98.3543 105.954 97.1633 105.213 96.3333 105.143C95.3228 105.037 94.2401 105.178 94.2401 105.178L95.9724 107.082L98.8234 106.271Z" fill="#F7A491"/>
<path d="M57.7533 162.242L56.851 167.355L62.8059 166.333C62.8059 166.333 66.7759 162.136 71.9729 156.528C69.627 155.012 67.1368 153.601 64.6465 152.19C60.7127 158.08 57.7533 162.242 57.7533 162.242Z" fill="#F7A491"/>
<path d="M63.2028 166.086C63.2028 166.086 60.5321 164.816 59.9547 164.076C59.3772 163.335 59.269 161.748 58.1502 161.572C57.0314 161.431 52.4118 164.287 51.8704 165.345C51.3291 166.439 51.1126 167.99 51.69 168.731C52.2674 169.472 63.1667 179.347 65.5126 180.546C67.8584 181.745 70.3487 180.334 69.0494 177.689C67.7863 175.044 64.863 166.297 63.2028 166.086Z" fill="#50BFA5"/>
<path d="M53.2417 96.5018C53.2417 96.5018 101.169 111.456 100.845 117.627C100.123 132.052 66.0898 164.322 66.0898 164.322L59.0161 159.738L79.9123 123.235C79.9123 123.235 58.3665 117.275 56.6703 115.617C54.9379 113.889 53.2417 96.5018 53.2417 96.5018Z" fill="#13375B"/>
<path d="M100.484 177.724C99.6536 177.724 98.9678 177.054 98.9678 176.243C98.9678 156.352 115.533 140.164 135.888 140.164C144.622 140.164 153.067 143.197 159.708 148.699C160.357 149.228 160.429 150.18 159.888 150.815C159.347 151.45 158.372 151.52 157.723 150.991C151.623 145.948 143.864 143.162 135.852 143.162C117.193 143.162 101.999 158.009 101.999 176.243C101.999 177.054 101.314 177.724 100.484 177.724Z" fill="#F47458"/>
<path d="M33.4284 208.161C15.4194 208.161 0.766785 193.842 0.766785 176.243C0.766785 158.644 15.4194 144.325 33.4284 144.325C51.4374 144.325 66.09 158.644 66.09 176.243C66.09 193.842 51.4374 208.161 33.4284 208.161ZM33.4284 148.311C17.657 148.311 4.84497 160.831 4.84497 176.243C4.84497 191.655 17.657 204.175 33.4284 204.175C49.1998 204.175 62.0118 191.655 62.0118 176.243C62.0118 160.831 49.1998 148.311 33.4284 148.311Z" fill="#355389"/>
<path d="M33.4284 201.037C19.4616 201.037 8.0571 189.927 8.0571 176.243C8.0571 162.594 19.4255 151.449 33.4284 151.449C47.3953 151.449 58.7997 162.559 58.7997 176.243C58.7636 189.892 47.3953 201.037 33.4284 201.037ZM33.4284 152.472C20.0029 152.472 9.1037 163.123 9.1037 176.243C9.1037 189.363 20.0029 200.014 33.4284 200.014C46.8539 200.014 57.7531 189.363 57.7531 176.243C57.7531 163.123 46.8539 152.472 33.4284 152.472Z" fill="#86B1F2"/>
<path d="M33.4282 197.897C21.1937 197.897 11.2689 188.164 11.2689 176.243C11.2689 172.751 12.099 169.436 13.723 166.333C13.8674 166.086 14.1561 165.98 14.4087 166.121C14.6614 166.262 14.7696 166.544 14.6253 166.791C13.0734 169.718 12.2794 172.892 12.2794 176.243C12.2794 187.634 21.7711 196.91 33.4282 196.91C36.4959 196.91 39.4553 196.275 42.2342 195.041C42.4868 194.935 42.7756 195.041 42.9199 195.288C43.0282 195.535 42.9199 195.817 42.6673 195.958C39.744 197.263 36.6402 197.897 33.4282 197.897Z" fill="#86B1F2"/>
<path d="M49.2359 162.277C49.0915 162.277 48.9471 162.206 48.875 162.136C44.905 157.974 39.275 155.611 33.4284 155.611C33.1397 155.611 32.9232 155.4 32.9232 155.117C32.9232 154.835 33.1397 154.624 33.4284 154.624C39.5276 154.624 45.4464 157.128 49.5968 161.466C49.7772 161.677 49.7772 161.995 49.5607 162.171C49.4885 162.242 49.3441 162.277 49.2359 162.277Z" fill="#86B1F2"/>
<path d="M56.2734 151.344C55.9125 151.344 55.5876 151.238 55.2989 150.991C49.1997 145.948 41.4403 143.162 33.4283 143.162C26.6795 143.162 20.1472 145.101 14.5893 148.769C13.9036 149.228 12.9291 149.051 12.46 148.346C11.9908 147.676 12.1713 146.724 12.8931 146.265C18.9923 142.28 26.102 140.164 33.4283 140.164C42.1621 140.164 50.6072 143.197 57.2478 148.699C57.8974 149.228 57.9696 150.18 57.4283 150.815C57.1395 151.167 56.7064 151.344 56.2734 151.344Z" fill="#F47458"/>
<path d="M76.7005 175.573C76.2674 175.573 75.8343 175.326 75.5817 174.938L47.4314 125.739C47.0705 125.14 47.3231 124.364 47.9367 124.046C48.5502 123.694 49.3442 123.941 49.669 124.54L78.8659 173.598C79.2268 174.198 77.9636 175.079 77.3501 175.432C77.1336 175.502 76.917 175.573 76.7005 175.573Z" fill="#B75742"/>
<path d="M110.337 128.702C110.373 127.891 109.651 127.256 108.821 127.397L55.1908 137.06C30.469 178.677 31.7683 175.89 32.2375 176.807C32.9232 178.077 31.66 177.195 79.0463 178.006C110.806 128.278 110.3 129.337 110.337 128.702ZM77.711 175.502L35.6299 175.044L56.8509 139.353L106.475 130.395L77.711 175.502Z" fill="#B75742"/>
<path d="M33.4284 172.928C33.2118 172.928 33.0314 172.751 33.0314 172.575C33.0314 172.363 33.1757 172.187 33.3923 172.187L78.3605 170.142C78.5771 170.142 78.7575 170.283 78.7575 170.494C78.7575 170.706 78.6132 170.882 78.3966 170.882L33.4284 172.928Z" fill="#184655"/>
<path d="M79.0463 182.38L33.3923 180.334C33.1757 180.334 32.9953 180.158 33.0314 179.946C33.0314 179.735 33.2479 179.558 33.4284 179.594L79.0463 181.639C79.2628 181.639 79.4433 181.815 79.4072 182.027C79.4433 182.203 79.2628 182.38 79.0463 182.38Z" fill="#184655"/>
<path d="M71.0701 176.243C71.0701 180.193 74.3544 183.402 78.3965 183.402C82.4386 183.402 85.7229 180.193 85.7229 176.243C85.7229 172.293 82.4386 169.083 78.3965 169.083C74.3544 169.083 71.0701 172.293 71.0701 176.243Z" fill="#86B1F2"/>
<path d="M88.8629 193.771C88.6824 193.771 88.538 193.701 88.4298 193.524L77.9637 176.984C77.8193 176.737 77.8915 176.455 78.1441 176.313C78.3967 176.172 78.6855 176.243 78.8298 176.49L89.2959 193.03C89.4403 193.277 89.3681 193.559 89.1155 193.701C89.0433 193.736 88.9711 193.771 88.8629 193.771Z" fill="#86B1F2"/>
<path d="M83.2686 195.076C82.7633 195.076 82.3302 194.723 82.2581 194.23C82.1859 193.701 82.5468 193.172 83.1242 193.101L94.3482 191.479C94.8896 191.408 95.4309 191.761 95.5031 192.325C95.5753 192.854 95.2144 193.383 94.6369 193.454L83.4129 195.076C83.3408 195.076 83.3047 195.076 83.2686 195.076Z" fill="#184655"/>
<path d="M41.5124 122.741H51.4733C52.1951 122.741 52.8086 123.341 52.8086 124.046V125.598C52.8086 126.303 52.1951 126.903 51.4733 126.903H38.914C37.9395 126.903 37.2538 125.88 37.6869 125.034C38.4087 123.693 39.8523 122.741 41.5124 122.741Z" fill="#184655"/>
<path d="M81.1396 185.801L84.7486 189.61L87.5275 184.355C87.5275 184.355 86.517 178.747 85.0734 171.27C82.4027 172.187 79.7681 173.28 77.1335 174.374C79.5516 180.969 81.1396 185.801 81.1396 185.801Z" fill="#F7A491"/>
<path d="M87.5636 183.861C87.5636 183.861 84.893 185.166 83.9546 185.166C83.0163 185.166 81.6448 184.284 80.8508 185.06C80.0568 185.836 79.5877 191.161 80.129 192.219C80.7065 193.313 81.8253 194.406 82.7997 194.406C83.7741 194.406 101.061 191.02 103.479 189.927C105.898 188.834 104.743 186.4 101.783 185.801C98.8238 185.166 88.7546 182.697 87.5636 183.861Z" fill="#50BFA5"/>
<path d="M61.3983 97.9831L46.8179 92.9398C46.8179 92.9398 35.9909 102.356 37.9758 108.669C39.9608 114.947 64.8268 146.794 64.8268 146.794C64.8268 146.794 75.4734 172.681 78.9741 182.309C81.6087 181.216 85.3982 179.77 88.0688 178.853C85.5786 165.98 79.5877 138.224 79.5877 138.224L63.0223 105.354L61.3983 97.9831Z" fill="#355389"/>
<path d="M97.1995 9.77761C97.6326 13.0223 98.1378 12.8107 98.1739 13.2339C98.21 13.7276 95.1785 19.6879 95.1785 19.6879C95.1785 19.6879 86.3725 37.2514 85.8673 38.2037L70.1681 51.1118L74.2463 60.6694C74.2463 60.6694 90.9559 46.1742 91.6777 45.2573C92.4356 44.3403 101.603 19.2294 102.469 17.0428C102.469 17.0428 104.454 14.8209 105.681 13.375C106.908 11.929 107.413 10.0245 107.702 9.56601C107.738 9.49547 108.604 7.9084 109.109 5.72178C109.578 3.81731 108.279 5.43964 108.279 5.43964C108.279 5.43964 106.799 8.82538 106.547 8.68431C106.366 8.5785 107.269 6.74455 107.81 4.66374C107.954 4.13472 108.063 3.57042 108.207 3.11194C108.496 1.80702 107.81 1.278 107.269 2.58292C107.088 3.0414 106.799 3.81731 106.655 4.3816C106.511 5.01642 106.186 5.54545 105.969 6.0392C105.572 7.06198 105.284 7.80259 105.248 7.76732C105.211 7.73206 104.995 7.87314 105.103 7.27358C105.248 6.56822 105.897 5.15749 106.042 4.13472C106.114 3.53516 106.366 2.33606 106.366 2.33606C106.366 2.33606 106.402 0.431581 106.294 0.396313C105.681 0.184705 105.32 1.48961 105.32 2.30077C105.067 2.8298 104.815 4.09946 104.815 4.09946C104.815 4.09946 103.768 6.63875 103.443 6.49768C103.299 6.42715 103.732 4.80481 103.948 3.18248C104.129 1.63068 104.057 0.0788875 103.768 0.00835143C103.263 -0.132721 102.902 1.56015 102.902 1.56015C102.902 1.56015 102.685 2.75927 102.613 3.14722C102.505 3.6057 102.036 4.94588 102.036 4.94588C102.036 4.94588 100.267 9.566 99.9424 9.42493C99.6175 9.28385 98.9318 8.54322 98.9679 8.19054C98.9679 7.87313 99.2927 7.27357 99.3288 6.95616C99.3288 6.63875 99.0762 6.21553 98.6792 6.18026C98.2822 6.14499 97.6326 7.69678 97.6326 7.69678C97.6326 7.69678 97.0913 8.86064 97.1995 9.77761Z" fill="#F8A492"/>
<path d="M78.3965 43.635C77.7829 43.494 61.2536 53.369 61.0371 57.2132C60.8205 61.0574 66.4867 67.1588 71.2506 64.69C75.9784 62.2212 85.6506 52.3109 85.6506 52.3109C85.6506 52.3109 80.3814 44.0935 78.3965 43.635Z" fill="#B94838"/>
<path d="M70.2042 52.2758C70.3486 52.4169 74.6794 61.6218 73.8493 68.2522C72.3336 80.3491 66.0539 100.064 63.7802 100.734C45.5547 106.095 38.878 102.074 38.878 102.074C38.878 102.074 46.096 65.3602 50.2825 57.037C52.0148 53.5807 54.1441 50.6182 58.1501 50.0186C59.0524 49.9128 66.6313 48.8195 70.2042 52.2758Z" fill="#F47458"/>
<path d="M69.3741 45.3279L70.1681 52.5931C70.1681 52.5931 70.3485 54.6033 69.338 55.4145C67.5696 56.79 60.9291 49.8422 60.9291 49.8422L61.6509 38.4154L69.3741 45.3279Z" fill="#F7A491"/>
<path d="M61.4341 41.8364C63.0581 46.4565 67.4251 48.7136 69.8071 49.031L69.4101 45.2926L61.6867 38.3801L61.4341 41.8364Z" fill="#F47458"/>
<path d="M65.2958 26.9178C68.7605 25.5777 72.6221 27.6585 73.3439 31.1853C73.6687 32.7018 73.9575 34.6415 74.1018 36.7576C74.4627 41.8362 72.0086 46.9501 69.6266 47.0559C67.2447 47.1617 60.5319 44.1991 59.9545 36.9692C59.5936 32.4902 61.6507 28.3286 65.2958 26.9178Z" fill="#F7A491"/>
<path d="M61.7231 37.4278C61.7952 38.5564 61.0735 39.5086 60.1351 39.5439C59.1968 39.5791 58.4028 38.7327 58.3306 37.6042C58.2584 36.4756 58.9802 35.5234 59.9186 35.4881C60.8569 35.4529 61.687 36.2993 61.7231 37.4278Z" fill="#F7A491"/>
<path d="M33.4283 181.569C30.4328 181.569 27.9786 179.17 27.9786 176.243C27.9786 173.316 30.4328 170.918 33.4283 170.918C36.4237 170.918 38.8779 173.316 38.8779 176.243C38.8779 179.17 36.4237 181.569 33.4283 181.569Z" fill="#184655"/>
<path d="M28.7727 176.243C28.7727 178.747 30.8659 180.793 33.4283 180.793C35.9907 180.793 38.0839 178.747 38.0839 176.243C38.0839 173.739 35.9907 171.693 33.4283 171.693C30.8298 171.693 28.7727 173.739 28.7727 176.243Z" fill="#466EB6"/>
<path d="M34.7275 176.243C34.7275 176.948 34.1501 177.548 33.3922 177.548C32.6704 177.548 32.0569 176.984 32.0569 176.243C32.0569 175.538 32.6343 174.938 33.3922 174.938C34.1501 174.938 34.7275 175.538 34.7275 176.243Z" fill="#5BCFF7"/>
<g opacity="0.57">
<path opacity="0.57" d="M135.311 197.897C123.076 197.897 113.151 188.164 113.151 176.243C113.151 172.751 113.982 169.436 115.606 166.333C115.75 166.086 116.039 165.98 116.291 166.121C116.544 166.262 116.652 166.544 116.508 166.791C114.956 169.718 114.162 172.892 114.162 176.243C114.162 187.634 123.654 196.91 135.311 196.91C138.378 196.91 141.338 196.275 144.117 195.041C144.369 194.935 144.658 195.041 144.802 195.288C144.911 195.535 144.802 195.817 144.55 195.958C141.626 197.263 138.523 197.897 135.311 197.897Z" fill="#86B1F2"/>
</g>
<path d="M135.311 208.161C117.302 208.161 102.649 193.842 102.649 176.243C102.649 158.644 117.302 144.325 135.311 144.325C153.32 144.325 167.972 158.644 167.972 176.243C167.972 193.842 153.32 208.161 135.311 208.161ZM135.311 148.311C119.539 148.311 106.727 160.831 106.727 176.243C106.727 191.655 119.539 204.175 135.311 204.175C151.082 204.175 163.894 191.655 163.894 176.243C163.894 160.831 151.082 148.311 135.311 148.311Z" fill="#355389"/>
<g opacity="0.57">
<path opacity="0.57" d="M135.311 201.037C121.344 201.037 109.939 189.927 109.939 176.243C109.939 162.594 121.308 151.449 135.311 151.449C149.278 151.449 160.682 162.559 160.682 176.243C160.646 189.892 149.278 201.037 135.311 201.037ZM135.311 152.472C121.885 152.472 110.986 163.123 110.986 176.243C110.986 189.363 121.885 200.014 135.311 200.014C148.736 200.014 159.636 189.363 159.636 176.243C159.636 163.123 148.736 152.472 135.311 152.472Z" fill="#86B1F2"/>
</g>
<path d="M135.852 177.477C135.419 177.477 134.95 177.23 134.733 176.842L100.375 115.723C100.051 115.123 99.8701 114.489 99.8701 113.818V109.868C99.8701 109.093 99.6897 108.281 99.4732 108.176C99.2566 108.034 98.2822 108.211 97.5965 108.599L91.6055 112.09C90.992 112.443 90.2341 112.267 89.8371 111.667C89.4762 111.068 89.6566 110.327 90.2702 109.939L96.2611 106.412C97.5243 105.671 99.6175 105.354 100.917 106.059C102.216 106.765 102.433 108.387 102.433 109.833V113.783C102.433 114.03 102.505 114.277 102.613 114.489L136.971 175.608C137.296 176.208 137.079 176.984 136.466 177.301C136.249 177.442 136.069 177.477 135.852 177.477Z" fill="#B75742"/>
<path d="M75.6899 83.8405C74.8959 82.1829 72.7666 74.3534 72.7666 74.3534L59.4493 75.1646C59.4493 75.1646 65.7651 88.7076 67.0644 91.3527C70.7456 94.5621 85.6869 104.402 87.0944 105.495C87.708 105.989 88.7546 106.871 89.1877 107.682C90.2343 109.481 90.523 110.362 91.4974 112.126C92.5801 114.136 99.0403 111.032 99.0403 109.269C99.0403 108.035 96.514 106.06 94.4929 104.437C93.5907 103.732 76.4117 85.3218 75.6899 83.8405Z" fill="#F7A491"/>
<path d="M55.371 51.0413C52.2672 52.7342 50.4988 55.4498 53.386 64.7253C56.2372 74.0008 59.8462 80.5959 59.8462 80.5959C59.8462 80.5959 69.6266 80.208 74.4627 75.4115C74.4627 75.4115 65.9815 45.2574 55.371 51.0413Z" fill="#B75742"/>
<path d="M130.619 176.243C130.619 178.747 132.712 180.793 135.275 180.793C137.837 180.793 139.93 178.747 139.93 176.243C139.93 173.739 137.837 171.693 135.275 171.693C132.712 171.693 130.619 173.739 130.619 176.243Z" fill="#466EB6"/>
<path d="M136.61 176.243C136.61 176.948 136.032 177.548 135.275 177.548C134.553 177.548 133.939 176.984 133.939 176.243C133.939 175.538 134.517 174.938 135.275 174.938C136.032 174.938 136.61 175.538 136.61 176.243Z" fill="#5BCFF7"/>
<path d="M98.3904 105.742C98.3904 105.742 96.9829 104.226 94.8175 104.402C92.652 104.578 93.6987 106.236 93.6987 106.306C93.6987 106.377 97.3799 108.105 97.3799 108.105C97.3799 108.105 96.6942 106.342 97.1994 106.06C97.7047 105.777 98.3904 105.742 98.3904 105.742Z" fill="#F7A491"/>
<path d="M59.9183 35.488C59.9183 35.488 59.4131 33.0545 59.6296 30.7268C59.8462 28.3991 61.8311 25.1191 64.2492 24.6254C66.6672 24.1316 72.3334 25.0486 73.0552 23.5321C73.777 22.0156 73.777 22.1919 74.0296 21.945C74.607 21.416 77.9995 23.6379 77.8191 27.5879C77.6747 31.5379 74.1018 31.3969 73.4161 31.5027C72.7304 31.6085 66.4146 29.0339 64.5018 29.1397C62.589 29.2808 59.9183 35.488 59.9183 35.488Z" fill="#355389"/>
</svg>
