<svg width="6" height="9" viewBox="0 0 6 9" fill="none" xmlns="http://www.w3.org/2000/svg">
<g clip-path="url(#clip0)">
<path d="M3 0C1.73441 0 0.705879 1.41855 0.705879 3.16406C0.705879 3.75469 0.824409 4.32949 1.05 4.8252L2.84451 8.8752C2.87509 8.94375 2.92098 8.98594 2.97451 8.99648C3.04715 9.01231 3.12745 8.97012 3.16951 8.86992L4.96911 4.78301C5.18323 4.29785 5.29411 3.73359 5.29411 3.16406C5.29411 1.41855 4.26559 0 3 0ZM3 4.74609C2.35764 4.74609 1.85294 4.02891 1.85294 3.16406C1.85294 2.29395 2.36911 1.58203 3 1.58203C3.63088 1.58203 4.14706 2.29395 4.14706 3.16406C4.14706 4.02363 3.65 4.74609 3 4.74609Z" fill="#FABD1B"/>
<path d="M3 0V1.58203C3.63088 1.58203 4.14706 2.29395 4.14706 3.16406C4.14706 4.02363 3.65 4.74609 3 4.74609V9C3.065 9.00176 3.13255 8.95957 3.16951 8.86992L4.96912 4.78301C5.18324 4.29785 5.29412 3.73359 5.29412 3.16406C5.29412 1.41855 4.26559 0 3 0Z" fill="#FA941B"/>
</g>
<defs>
<clipPath id="clip0">
<rect width="6" height="9" fill="white"/>
</clipPath>
</defs>
</svg>
