<svg width="23" height="22" viewBox="0 0 23 22" fill="none" xmlns="http://www.w3.org/2000/svg">
<path d="M20.2875 11.692C20.7541 11.1799 21.039 10.4944 21.039 9.74701C21.039 8.15304 19.7424 6.85638 18.1484 6.85638C16.5545 6.85638 15.2578 8.15304 15.2578 9.74701C15.2578 10.8496 15.8813 11.8117 16.794 12.299C16.2282 12.8606 15.8772 13.637 15.8772 14.4959V15.1153H14.019C12.9949 15.1153 12.1607 15.9495 12.1607 16.9736C12.1607 17.1924 12.1979 17.3989 12.2681 17.593H10.7319C10.8021 17.3989 10.8393 17.1924 10.8393 16.9736C10.8393 15.9495 10.0051 15.1153 8.98101 15.1153H7.12275V14.4959C7.12275 13.637 6.77175 12.8606 6.20601 12.299C7.11863 11.8117 7.74217 10.8496 7.74217 9.74701C7.74217 8.15304 6.44552 6.85638 4.85155 6.85638C3.25758 6.85638 1.96092 8.15304 1.96092 9.74701C1.96092 10.4944 2.24586 11.1758 2.71249 11.692C1.65947 12.1875 0.928558 13.2571 0.928558 14.4959V20.6901C0.928558 21.0328 1.20523 21.3095 1.54798 21.3095H21.452C21.7947 21.3095 22.0714 21.0328 22.0714 20.6901V14.4959C22.0714 13.2571 21.3405 12.1875 20.2875 11.692ZM16.4966 9.74701C16.4966 8.8344 17.2358 8.09522 18.1484 8.09522C19.061 8.09522 19.8002 8.8344 19.8002 9.74701C19.8002 10.6596 19.061 11.3988 18.1484 11.3988C17.2358 11.3988 16.4966 10.6596 16.4966 9.74701ZM4.85155 8.09522C5.76416 8.09522 6.50333 8.8344 6.50333 9.74701C6.50333 10.6596 5.76416 11.3988 4.85155 11.3988C3.93894 11.3988 3.19976 10.6596 3.19976 9.74701C3.19976 8.8344 3.93894 8.09522 4.85155 8.09522ZM4.02566 15.1153C3.68291 15.1153 3.40624 15.392 3.40624 15.7347V16.5606C3.40624 17.5971 4.10412 18.4767 5.05802 18.7451V20.0707H2.1674V14.4959C2.1674 13.4718 3.00155 12.6376 4.02566 12.6376C5.04976 12.6376 5.88392 13.4718 5.88392 14.4959V15.7347C5.88392 16.0775 6.16059 16.3542 6.50333 16.3542H8.98101C9.32376 16.3542 9.60043 16.6308 9.60043 16.9736C9.60043 17.3163 9.32376 17.593 8.98101 17.593H5.67744C5.10758 17.593 4.64508 17.1305 4.64508 16.5606V15.7347C4.64508 15.392 4.3684 15.1153 4.02566 15.1153ZM16.7031 20.0707H6.29686V18.8318H16.7031V20.0707ZM20.8326 20.0707H17.942V18.7451C18.8959 18.4767 19.5937 17.5971 19.5937 16.5606V15.7347C19.5937 15.392 19.3171 15.1153 18.9743 15.1153C18.6316 15.1153 18.3549 15.392 18.3549 15.7347V16.5606C18.3549 17.1305 17.8924 17.593 17.3225 17.593H14.019C13.6762 17.593 13.3995 17.3163 13.3995 16.9736C13.3995 16.6308 13.6762 16.3542 14.019 16.3542H16.4966C16.8394 16.3542 17.1161 16.0775 17.1161 15.7347V14.4959C17.1161 13.4718 17.9502 12.6376 18.9743 12.6376C19.9984 12.6376 20.8326 13.4718 20.8326 14.4959V20.0707Z" fill="white"/>
<path d="M8.19642 6.36085H8.40289V7.39322C8.40289 7.63273 8.53916 7.84746 8.7539 7.9507C8.96863 8.05393 9.22466 8.02503 9.41048 7.87637L11.3059 6.36085H11.6982L13.5936 7.87637C13.7795 8.02503 14.0355 8.05393 14.2502 7.9507C14.4649 7.84746 14.6012 7.6286 14.6012 7.39322V6.36085H14.8077C15.6047 6.36085 16.253 5.71253 16.253 4.91554V1.61197C16.253 0.814982 15.6047 0.166656 14.8077 0.166656H8.19642C7.39943 0.166656 6.75111 0.814982 6.75111 1.61197V4.91554C6.75111 5.71253 7.39943 6.36085 8.19642 6.36085ZM7.98995 1.61197C7.98995 1.49634 8.08079 1.4055 8.19642 1.4055H14.8036C14.9192 1.4055 15.01 1.49634 15.01 1.61197V4.91554C15.01 5.03117 14.9192 5.12201 14.8036 5.12201H13.9777C13.6349 5.12201 13.3582 5.39869 13.3582 5.74143V6.10483L12.3011 5.25829C12.1896 5.17157 12.0533 5.12201 11.9129 5.12201H11.087C10.9466 5.12201 10.8104 5.17157 10.6989 5.25829L9.64173 6.10483V5.74143C9.64173 5.39869 9.36506 5.12201 9.02231 5.12201H8.19642C8.08079 5.12201 7.98995 5.03117 7.98995 4.91554V1.61197Z" fill="white"/>
<path d="M9.8482 3.88317H13.1518C13.4945 3.88317 13.7712 3.6065 13.7712 3.26375C13.7712 2.92101 13.4945 2.64433 13.1518 2.64433H9.8482C9.50546 2.64433 9.22878 2.92101 9.22878 3.26375C9.22878 3.6065 9.50546 3.88317 9.8482 3.88317Z" fill="white"/>
</svg>
