<svg width="232" height="29" viewBox="0 0 232 29" fill="none" xmlns="http://www.w3.org/2000/svg">
<g style="mix-blend-mode:screen" opacity="0.5">
<g clip-path="url(#clip0)">
<path d="M207.014 68.6864C207.214 68.2304 203.177 63.6771 200.81 62.057C198.444 60.437 186.803 55.7475 185.927 39.5597C184.996 23.4671 200.46 12.0783 215.11 19.5842C229.76 27.0901 225.209 49.1599 223.481 54.1308C222.079 58.2097 221.665 63.8753 221.665 63.8753L207.014 68.6864Z" fill="#333333"/>
<path d="M194.271 26.5365C193.39 26.8531 192.644 27.3749 192.034 28.1019C191.554 28.7136 191.074 29.3253 190.764 29.9718C190.124 31.1897 189.6 32.5377 189.341 33.9756C189.028 35.5087 188.959 37.0566 188.966 38.5843C188.942 39.3958 188.863 40.3025 189.16 41.1086C189.321 41.7094 189.557 42.2902 190.073 42.7153C190.685 43.1955 191.537 43.3698 192.302 42.923C193.834 42.0296 193.686 39.9761 193.83 38.4082C193.824 38.0876 193.914 37.822 193.909 37.5015C193.944 37.3311 193.978 37.1608 194.013 36.9904C194.098 36.4043 194.237 35.7229 194.397 35.1166C194.501 34.6056 194.701 34.1495 194.881 33.6184C194.936 33.5231 194.991 33.4279 194.971 33.3528C195.061 33.0872 195.246 32.8766 195.335 32.611C195.445 32.4206 195.61 32.1348 195.795 31.9243C195.85 31.829 195.905 31.7338 196.036 31.6184C196.036 31.6184 196.145 31.4279 196.221 31.4078C196.221 31.4078 196.221 31.4078 196.296 31.3877C196.351 31.2925 196.481 31.1771 196.536 31.0819C196.961 30.5654 197.161 30.1094 197.395 29.483C197.934 27.8895 195.904 26.0186 194.271 26.5365Z" fill="white"/>
<path d="M202.85 20.6958C202.148 20.4812 201.547 20.6422 200.966 20.8784C200.536 21.0742 200.105 21.2701 199.675 21.466C199.244 21.6618 198.929 21.9878 198.539 22.3339C198.073 22.7001 197.709 23.4418 197.644 24.1031C197.49 25.0299 198.032 25.8507 198.959 26.0049C198.959 26.0049 199.034 25.9848 199.054 26.0599C199.054 26.0599 198.979 26.08 198.959 26.0049C199.225 26.0948 199.565 26.1645 199.866 26.084C200.016 26.0437 200.166 26.0035 200.337 26.0383C200.487 25.9981 200.637 25.9578 200.787 25.9176C201.293 25.7016 201.723 25.5057 202.229 25.2897C202.004 25.3501 201.874 25.4655 201.648 25.5258C202.454 25.2293 203.301 25.0831 203.856 24.4513C204.336 23.8396 204.626 23.118 204.424 22.3669C204.183 21.4656 203.551 20.9103 202.85 20.6958Z" fill="white"/>
<path d="M181.923 25.8199C181.903 25.7448 181.828 25.765 181.808 25.6898C181.788 25.6147 181.693 25.5597 181.673 25.4846C181.537 25.2794 181.272 25.1896 181.081 25.0796C180.72 24.9348 180.339 24.7149 179.903 24.5902C179.467 24.4655 178.997 24.5111 178.581 24.4615C178.411 24.4266 178.26 24.4669 178.165 24.4119C177.92 24.3972 177.694 24.4576 177.469 24.5179C177.073 24.5435 176.698 24.6441 176.362 24.8949C176.232 25.0103 176.082 25.0505 175.952 25.1659C175.672 25.3215 175.432 25.6273 175.362 25.968C175.292 26.3087 175.298 26.6293 175.473 26.9847C175.805 27.6205 176.266 28.1408 176.968 28.3554C177.499 28.5351 177.99 28.5645 178.536 28.4988C179.082 28.433 179.648 28.4423 180.078 28.2465C180.228 28.2062 180.454 28.1458 180.604 28.1056C180.829 28.0452 180.979 28.005 181.205 27.9446C181.28 27.9245 181.355 27.9043 181.355 27.9043C181.73 27.8037 182.121 27.4576 182.245 27.0217C182.37 26.5858 182.174 26.1552 181.923 25.8199Z" fill="#333333"/>
<path d="M195.303 9.35458C195.167 9.14938 195.107 8.92405 194.971 8.71884C194.68 8.23333 194.369 7.6727 193.928 7.22743C193.717 7.04235 193.506 6.85727 193.316 6.74731C193.01 6.50724 192.745 6.4174 192.404 6.34768C192.063 6.27797 192.063 6.27796 192.479 6.32756L192.309 6.2927C191.968 6.22298 191.572 6.2485 191.217 6.42424C190.937 6.57985 190.696 6.88568 190.552 7.2465L190.517 7.41684C190.662 7.05603 190.662 7.05603 190.572 7.32161C190.427 7.68243 190.377 8.09823 190.498 8.54889C190.599 8.92444 190.679 9.22488 190.855 9.5803C191.166 10.1409 191.553 10.6814 191.919 11.1468C192.285 11.6122 192.651 12.0776 193.223 12.4075C193.413 12.5175 193.604 12.6275 193.794 12.7374C194.536 13.1022 195.287 12.9009 195.747 12.2142C196.042 11.8131 195.996 11.3423 195.855 10.8165C195.795 10.5912 195.81 10.3457 195.769 10.1955C195.634 9.99032 195.478 9.71001 195.303 9.35458Z" fill="#333333"/>
<path d="M219.958 6.12935L219.978 6.20446C219.918 5.97913 219.837 5.67869 219.702 5.47349C219.681 5.39838 219.586 5.34339 219.566 5.26828L219.546 5.19317C219.255 4.70765 218.724 4.52797 218.273 4.64872L218.198 4.66885C218.048 4.7091 217.897 4.74935 217.747 4.7896C217.597 4.82985 217.392 4.96534 217.242 5.00559C217.392 4.96534 217.522 4.84998 217.672 4.80973C217.016 5.06597 216.626 5.41205 216.146 6.02372C215.906 6.32955 215.816 6.59513 215.596 6.97607C215.396 7.43213 215.271 7.86805 215.072 8.32411C214.582 9.50179 214.208 10.8096 214.851 12.0059C215.162 12.5666 215.884 12.8562 216.56 12.6751C217.836 12.333 218.551 11.0949 219.061 9.99231C219.261 9.53626 219.46 9.08021 219.68 8.69927C219.825 8.33845 219.97 7.97763 220.04 7.63694C220.054 7.39149 220.144 7.12591 220.159 6.88045C220.099 6.65512 220.038 6.42979 219.958 6.12935Z" fill="#333333"/>
</g>
<g clip-path="url(#clip1)">
<path d="M177 -6.6C174.8 -11.5 126.8 -19.7 121.7 -17.7C116.9 -15.8 112 16.2 112 20C112 20.9 115.5 22.3 120.7 23.7C121.5 28 122.8 34.7 123.7 35.8C124.6 37 130.4 31 133.2 26.7C148.9 30 167.9 32.9 170 32.1C173.4 30.5 179.3 -1.7 177 -6.6Z" fill="#333333"/>
<path d="M130.1 9.29999C130.1 9.19999 130.1 9.19999 130.1 9.09999C130.2 8.49999 130.1 7.89999 129.8 7.39999C129.5 6.79999 129.1 6.39999 128.6 5.99999C127.8 5.19999 126.6 4.69999 125.4 5.19999C124 5.79999 123.4 7.29999 123.5 8.59999C123.6 9.19999 123.8 9.79999 124.2 10.4C124.5 10.9 125.1 11.4 125.7 11.6C126.3 12.1 127 12.3 127.7 12.2C128.4 12.1 129.1 11.7 129.5 11.1C130 10.6 130.2 9.99999 130.1 9.29999Z" fill="white"/>
<path d="M147.1 13.2C147.1 13.1 147.1 13.1 147.1 13C147.2 12.4 147.1 11.8 146.8 11.3C146.5 10.7 146.1 10.3 145.6 9.9C144.8 9.1 143.6 8.6 142.4 9.1C141 9.7 140.4 11.2 140.5 12.5C140.6 13.1 140.8 13.7 141.2 14.3C141.5 14.8 142.1 15.3 142.7 15.5C143.3 16 144 16.2 144.7 16.1C145.4 16 146.1 15.6 146.5 15C147 14.5 147.1 13.8 147.1 13.2Z" fill="white"/>
<path d="M164.1 17.1C164.1 17 164.1 17 164.1 16.9C164.2 16.3 164.1 15.7 163.8 15.2C163.5 14.6 163.1 14.2 162.6 13.8C161.8 13 160.6 12.5 159.4 13C158 13.6 157.4 15.1 157.5 16.4C157.6 17 157.8 17.6 158.2 18.2C158.5 18.7 159.1 19.2 159.7 19.4C160.3 19.9 161 20.1 161.7 20C162.4 19.9 163.1 19.5 163.5 18.9C164 18.4 164.1 17.7 164.1 17.1Z" fill="white"/>
</g>
<g clip-path="url(#clip2)">
<path d="M93.8764 39.9205L89.5463 37.4205C89.8499 36.0947 90.0169 34.8054 90.0472 33.5528L94.9649 32.2351C96.4676 31.8325 97.3176 30.3603 96.9149 28.8576L95.7436 24.4863C95.341 22.9837 93.8688 22.1337 92.3661 22.5363L87.4485 23.854C86.7958 22.7844 86.0066 21.7514 85.0808 20.755L87.5808 16.4249C88.3808 15.0392 87.9415 13.4 86.5559 12.6L82.6588 10.35C81.3597 9.6 79.7205 10.0392 78.9205 11.4249L76.4205 15.755C75.0947 15.4514 73.8054 15.2844 72.5528 15.254L71.2351 10.3363C70.8325 8.83372 69.3603 7.98372 67.8576 8.38634L63.4863 9.55762C61.9837 9.96025 61.1337 11.4325 61.5363 12.9351L62.854 17.8528C61.7844 18.5054 60.7514 19.2947 59.755 20.2205L55.4249 17.7205C54.0392 16.9205 52.4 17.3597 51.6 18.7454L49.35 22.6425C48.6 23.9415 49.0392 25.5808 50.4249 26.3808L54.755 28.8808C54.4514 30.2066 54.2844 31.4958 54.254 32.7485L49.3363 34.0661C47.8337 34.4688 46.9837 35.941 47.3863 37.4436L48.5576 41.8149C48.9603 43.3175 50.4325 44.1675 51.9351 43.7649L56.8528 42.4472C57.5054 43.5168 58.2947 44.5499 59.2205 45.5463L56.7205 49.8764C55.9705 51.1754 56.3597 52.9013 57.7454 53.7013L61.6425 55.9513C62.9415 56.7013 64.6674 56.312 65.4674 54.9264L67.9674 50.5963C69.2932 50.8999 70.5824 51.0668 71.8351 51.0972L73.1527 56.0149C73.5554 57.5175 75.0276 58.3675 76.5302 57.9649L80.9015 56.7936C82.4042 56.391 83.2542 54.9188 82.8515 53.4161L81.5338 48.4985C82.6035 47.8458 83.6365 47.0566 84.6329 46.1308L88.963 48.6308C90.262 49.3808 91.9879 48.9915 92.7879 47.6059L95.0379 43.7088C95.7013 42.3597 95.262 40.7205 93.8764 39.9205ZM67.1506 41.8109C62.3875 39.0609 60.7404 32.9138 63.4904 28.1506C66.2404 23.3875 72.3875 21.7404 77.1506 24.4904C81.9138 27.2404 83.5609 33.3875 80.8109 38.1506C78.0609 42.9138 71.9138 44.5609 67.1506 41.8109Z" fill="#333333"/>
</g>
<g clip-path="url(#clip3)">
<path d="M36.7055 -0.18453C36.5055 -0.68453 36.5055 -0.98453 36.1055 -1.38453C35.7055 -1.68453 35.3055 -1.78453 34.9055 -1.88453C34.0055 -2.08453 33.1055 -1.98453 32.3055 -1.88453C30.7055 -1.58453 29.0055 -0.68453 27.9055 0.61547C27.3055 1.31547 26.9055 2.01547 26.6055 2.81547C26.3055 3.71547 26.1055 4.81547 25.6055 5.51547C24.9055 6.51547 23.4055 6.71547 22.3055 6.91547C19.6055 7.31547 16.2055 7.11547 14.2055 9.31547C12.9055 10.8155 12.9055 12.6155 12.4055 14.4155C11.9055 16.3155 10.2055 16.6155 8.50546 16.7155C6.50546 16.9155 4.50546 17.1155 2.90546 18.4155C1.40546 19.5155 -0.0945382 21.5155 0.00546183 23.5155C-0.0945382 24.4155 1.20546 25.0155 1.70546 24.0155C2.40546 22.4155 3.00546 21.0155 4.60546 20.1155C6.00546 19.3155 7.70546 19.4155 9.30546 19.2155C10.9055 19.0155 12.5055 18.7155 13.6055 17.5155C14.9055 16.1155 15.0055 14.3155 15.5055 12.6155C16.3055 9.91547 19.5055 10.0155 21.8055 9.81547C24.7055 9.51547 27.5055 8.71547 28.6055 5.71547C28.9055 4.81547 29.1055 3.81547 29.7055 2.91547C30.2055 2.21547 30.8055 1.71547 31.5055 1.31547C32.2055 1.01547 33.0055 0.81547 33.7055 0.81547C34.2055 0.81547 34.6055 0.91547 35.1055 1.01547C35.7055 1.01547 36.0055 0.71547 36.5055 0.61547C36.7055 0.41547 36.8055 0.01547 36.7055 -0.18453Z" fill="#333333"/>
<path d="M32.8 16.3C32.6 15.8 32.6 15.5 32.2 15.1C31.8 14.8 31.4 14.7 31 14.6C30.1 14.4 29.2 14.5 28.4 14.6C26.8 14.9 25.1 15.8 24 17.1C23.4 17.8 23 18.5 22.7 19.3C22.4 20.2 22.2 21.3 21.7 22C21 23 19.5 23.2 18.4 23.4C15.7 23.8 12.3 23.6 10.3 25.8C9.00001 27.3 9.00001 29.1 8.50001 30.9C8.00001 32.8 6.30001 33.1 4.60001 33.2C2.60001 33.4 0.600013 33.6 -0.999987 34.9C-2.49999 36 -3.99999 38 -3.89999 40C-3.89999 40.9 -2.59999 41.4 -2.09999 40.5C-1.39999 38.9 -0.799986 37.5 0.800014 36.6C2.20001 35.8 3.90001 35.9 5.50001 35.7C7.10001 35.5 8.70001 35.2 9.80001 34C11.1 32.6 11.2 30.8 11.7 29.1C12.5 26.4 15.7 26.5 18 26.3C20.9 26 23.7 25.2 24.8 22.2C25.1 21.3 25.3 20.3 25.9 19.4C26.4 18.7 27 18.2 27.7 17.8C28.4 17.5 29.2 17.3 29.9 17.3C30.4 17.3 30.8 17.4 31.3 17.5C31.9 17.5 32.2 17.2 32.7 17.1C32.8 17 32.9 16.6 32.8 16.3Z" fill="#333333"/>
</g>
</g>
<defs>
<clipPath id="clip0">
<rect width="61.4789" height="50.7834" fill="white" transform="matrix(0.987149 -0.159805 0.405419 0.914131 166 8.01221)"/>
</clipPath>
<clipPath id="clip1">
<rect width="66" height="52" fill="white" transform="translate(112 -11)"/>
</clipPath>
<clipPath id="clip2">
<rect width="45.86" height="36.1857" fill="white" transform="matrix(0.944206 0.329354 -0.69088 0.722969 63 -0.604126)"/>
</clipPath>
<clipPath id="clip3">
<rect width="45" height="58" fill="white" transform="translate(-4 -18)"/>
</clipPath>
</defs>
</svg>
