<svg width="18" height="18" viewBox="0 0 18 18" fill="none" xmlns="http://www.w3.org/2000/svg">
<g clip-path="url(#clip0)">
<path d="M15.4448 15.8246L14.7053 12.1789C14.5432 11.3787 13.9489 11.05 13.6113 10.9238C13.5978 10.9172 11.4738 10.3029 11.4603 10.2996L10.7951 9.85801V9.44297C11.7912 8.92832 12.5105 7.93555 12.5881 6.69375C12.5949 6.5709 12.6759 6.46133 12.7941 6.42148C13.4863 6.18574 13.7902 5.44863 13.3681 4.8875C13.3681 4.86758 13.3681 4.08066 13.3681 4.06074C13.3681 1.82285 11.5144 0 9.23848 0C6.9626 0 5.10543 1.82285 5.10543 4.06074C5.10543 4.08066 5.10543 4.86758 5.10543 4.8875C4.70023 5.42539 4.96023 6.11934 5.58829 6.38828C5.7605 6.46133 5.87869 6.62402 5.89557 6.80664C6.007 7.98203 6.69922 8.93164 7.6717 9.43965V9.86465L7.02338 10.2963C7.0065 10.2996 4.86906 10.9205 4.85556 10.9271C4.51789 11.05 3.9236 11.3787 3.76152 12.1822L3.01865 15.8246C2.93761 16.223 3.05579 17 4.04178 17C5.37219 17 13.2635 17 14.4217 17C14.783 17 15.0599 16.8938 15.2422 16.6879C15.4448 16.4588 15.5022 16.0969 15.4448 15.8246Z" fill="#FA941B"/>
<path d="M4.83451 15.8246L5.60564 11.5646C5.71128 11.0666 5.98944 10.7512 6.27113 10.5519C5.65142 10.7246 4.94367 10.9238 4.93311 10.9238C4.58099 11.0467 3.96128 11.3754 3.79226 12.1789L3.02113 15.8246C2.93663 16.223 3.05987 17 4.08804 17C4.3979 17 5.05635 17 5.90142 17C4.87677 17 4.75001 16.223 4.83451 15.8246Z" fill="#EF8A11"/>
<path d="M7.08445 6.09609C6.76755 5.76406 6.70416 5.28262 7.01402 4.8875C7.01402 4.86758 7.01402 4.08066 7.01402 4.06074C7.01402 2.11504 8.47177 0.484766 10.4154 0.0896484C10.1197 0.0298828 9.81684 0 9.50698 0C7.13022 0 5.19712 1.82285 5.19712 4.06074C5.19712 4.08066 5.19712 4.86758 5.19712 4.8875C4.77459 5.42539 5.04571 6.11934 5.70064 6.38828C5.88022 6.46133 6.00346 6.62402 6.02107 6.80664C6.13726 7.98203 6.85909 8.93164 7.87318 9.43965C7.36614 8.44355 7.33445 7.55371 7.39431 6.9959C7.426 6.66719 7.31684 6.3418 7.08445 6.09609Z" fill="#EF8A11"/>
</g>
<defs>
<clipPath id="clip0">
<rect width="13" height="17.7273" fill="white" transform="translate(3)"/>
</clipPath>
</defs>
</svg>
