<svg width="47" height="54" viewBox="0 0 47 54" fill="none" xmlns="http://www.w3.org/2000/svg">
<path d="M27.4539 12.7017C21.8629 11.543 16.3328 14.8997 14.7743 20.3911C14.2549 22.297 14.2721 24.3118 14.8175 26.2071C15.4558 28.2753 15.8975 30.3952 16.1328 32.5381L16.5852 37.1845C16.6152 37.4623 16.8131 37.6981 17.0811 37.7699L24.8775 39.859C25.1455 39.9308 25.4348 39.8256 25.5997 39.6L28.2897 35.8303C29.4311 34.1694 30.7597 32.6544 32.2631 31.2994C36.7258 27.3782 37.1642 20.5772 33.2417 16.1149C31.7289 14.3868 29.6971 13.1984 27.4539 12.7017ZM22.5133 25.293L21.8636 25.1189C21.5063 25.0232 21.2923 24.6525 21.388 24.2953C21.4837 23.938 21.8544 23.7241 22.2117 23.8198C22.5691 23.9156 22.7831 24.2862 22.6874 24.6435L22.5133 25.293ZM20.6799 37.3331L23.4646 26.9403L24.764 27.2885L21.9793 37.6813L20.6799 37.3331ZM31.3766 30.2873C29.8049 31.7024 28.4015 33.3018 27.2037 35.0433L24.7811 38.4321L23.2787 38.0295L26.0634 27.6366L26.7131 27.8107C27.7933 28.1001 28.895 27.4642 29.1844 26.3843C29.4737 25.3044 28.8375 24.2028 27.7574 23.9134C26.6773 23.624 25.5755 24.2599 25.2862 25.3398L25.1121 25.9893L23.8127 25.6412L23.9868 24.9916C24.2761 23.9117 23.64 22.8101 22.5598 22.5207C21.4797 22.2313 20.3779 22.8672 20.0886 23.9471C19.7992 25.027 20.4354 26.1286 21.5155 26.418L22.1652 26.5921L19.3805 36.985L17.8781 36.5824L17.475 32.4017C17.229 30.1689 16.7744 27.9672 16.1129 25.8232C15.6349 24.1635 15.6196 22.4015 16.0737 20.7392C17.4391 15.9359 22.2809 13.0039 27.1627 14.0161C32.2425 15.1336 35.4684 20.149 34.3513 25.2277C33.9207 27.1922 32.8815 28.9588 31.3766 30.2873ZM26.4115 26.3375L26.5856 25.688C26.6813 25.3307 27.052 25.1168 27.4093 25.2125C27.7667 25.3082 27.9807 25.6789 27.885 26.0361C27.7892 26.3934 27.4186 26.6074 27.0612 26.5116L26.4115 26.3375Z" fill="white"/>
<path d="M26.8796 15.3326C26.016 15.1447 25.1316 15.0992 24.2487 15.2107L24.414 16.543C25.1436 16.4513 25.8812 16.4923 26.5964 16.6491C29.1851 17.2209 31.1985 19.2572 31.7404 21.8478L33.0584 21.5744C32.3947 18.4638 29.9842 16.0253 26.8796 15.3326Z" fill="white"/>
<path d="M31.7813 24.3911L33.1031 24.6234C33.1952 24.1173 33.2261 23.6121 33.2245 23.0982L31.8781 23.1204C31.8874 23.5406 31.8517 23.9661 31.7813 24.3911Z" fill="white"/>
<path d="M24.5315 41.15L16.7352 39.0609C16.3778 38.9652 16.0071 39.1791 15.9114 39.5364C15.8157 39.8937 16.0297 40.2643 16.3871 40.36L24.1834 42.4491C24.5408 42.5448 24.9115 42.3309 25.0072 41.9736C25.1029 41.6163 24.8889 41.2457 24.5315 41.15Z" fill="white"/>
<path d="M23.8354 43.7482L16.039 41.6591C15.6816 41.5634 15.311 41.7773 15.2152 42.1346C15.1195 42.4919 15.3335 42.8625 15.6909 42.9582L23.4873 45.0473C23.8446 45.143 24.2153 44.9291 24.311 44.5718C24.4067 44.2146 24.1927 43.8439 23.8354 43.7482Z" fill="white"/>
<path d="M23.1392 46.3464L15.3428 44.2573C14.9855 44.1616 14.6148 44.3756 14.519 44.7328C14.4233 45.0901 14.6374 45.4607 14.9947 45.5564L15.7094 45.7479C15.5968 47.5975 17.0058 49.1934 18.8638 49.3083C20.2085 49.3901 21.475 48.6591 22.0764 47.454L22.7911 47.6455C23.1484 47.7412 23.5191 47.5273 23.6148 47.17C23.7106 46.8128 23.4965 46.4421 23.1392 46.3464ZM18.5448 47.9001C17.7246 47.6803 17.1329 46.9648 17.0656 46.1113L20.7283 47.0928C20.2433 47.7982 19.365 48.1199 18.5448 47.9001Z" fill="white"/>
<path d="M43.2226 25.9687L39.3244 24.9242C38.9671 24.8285 38.5964 25.0424 38.5007 25.3997C38.4049 25.7569 38.619 26.1276 38.9763 26.2233L42.8745 27.2678C43.2318 27.3636 43.6025 27.1496 43.6982 26.7924C43.794 26.4351 43.5799 26.0645 43.2226 25.9687Z" fill="white"/>
<path d="M41.9312 31.958L38.5551 28.9648C38.2738 28.7154 37.8492 28.7408 37.6079 29.0243C37.3584 29.3055 37.3839 29.7301 37.6674 29.9714L41.0435 32.9646C41.3248 33.214 41.7494 33.1885 41.9908 32.9051C42.2299 32.6298 42.2044 32.2052 41.9312 31.958Z" fill="white"/>
<path d="M39.5316 21.812C39.607 22.1803 39.962 22.4147 40.3223 22.3372L44.7426 21.433C45.111 21.3577 45.3453 21.0028 45.2678 20.6426C45.1924 20.2743 44.8373 20.0399 44.4771 20.1175L40.0568 21.0216C39.6987 21.091 39.4643 21.4459 39.5316 21.812Z" fill="white"/>
<path d="M12.0371 17.6126L8.13887 16.5681C7.78154 16.4723 7.41085 16.6863 7.31513 17.0435C7.2194 17.4008 7.43344 17.7714 7.79078 17.8672L11.689 18.9117C12.0463 19.0074 12.417 18.7935 12.5127 18.4362C12.6084 18.079 12.3944 17.7083 12.0371 17.6126Z" fill="white"/>
<path d="M10.683 21.4965L6.26266 22.4006C5.8943 22.476 5.65993 22.8309 5.73751 23.1911C5.81291 23.5594 6.16792 23.7937 6.52816 23.7162L10.9485 22.8121C11.3169 22.7367 11.5512 22.3818 11.4736 22.0216C11.4042 21.6636 11.0492 21.4293 10.683 21.4965Z" fill="white"/>
<path d="M12.4583 14.871C12.7396 15.1205 13.1643 15.095 13.4056 14.8116C13.6469 14.5282 13.6295 14.1058 13.346 13.8645L9.96996 10.8713C9.68862 10.6219 9.26399 10.6473 9.02266 10.9308C8.77321 11.212 8.79872 11.6366 9.08224 11.8779L12.4583 14.871Z" fill="white"/>
</svg>
