<svg width="18" height="17" viewBox="0 0 18 17" fill="none" xmlns="http://www.w3.org/2000/svg">
<path d="M9 14.875C13.1421 14.875 16.5 11.7037 16.5 7.79165C16.5 3.87963 13.1421 0.708313 9 0.708313C4.85786 0.708313 1.5 3.87963 1.5 7.79165C1.5 11.7037 4.85786 14.875 9 14.875Z" fill="#FCE0C0"/>
<path d="M13.8751 7.79167C13.8751 5.06458 11.4001 2.90416 8.43759 3.22291C6.18759 3.47083 4.38759 5.17083 4.16259 7.29583C3.97509 8.925 4.68759 10.3771 5.88759 11.2979C6.41259 11.7229 6.75009 12.325 6.75009 12.9979V13.1042H11.2501V13.0687C11.2501 12.4312 11.5501 11.7937 12.0751 11.3687C13.1626 10.5187 13.8751 9.24375 13.8751 7.79167Z" fill="#FA941B"/>
<path d="M11.4751 7.15416L10.3501 6.44583C10.2376 6.37499 10.0501 6.37499 9.9376 6.44583L9.0001 7.01249L8.1001 6.44583C7.9876 6.37499 7.8001 6.37499 7.6876 6.44583L6.5626 7.15416C6.4876 7.22499 6.4126 7.29582 6.4126 7.40207C6.4126 7.50832 6.4126 7.61458 6.4876 7.68541L7.9126 9.34999V13.1042H8.6626V9.20832C8.6626 9.13749 8.6251 9.06666 8.5876 8.99582L7.3501 7.54374L7.9126 7.18957L8.8126 7.75624C8.9251 7.82707 9.1126 7.82707 9.2251 7.75624L10.1251 7.18957L10.6876 7.54374L9.4501 8.99582C9.4126 9.06666 9.3751 9.13749 9.3751 9.20832V13.1042H10.1251V9.34999L11.5501 7.68541C11.6251 7.61458 11.6626 7.50832 11.6251 7.40207C11.5876 7.29582 11.5501 7.18958 11.4751 7.15416Z" fill="#FFF59D"/>
<path d="M9 16.6458C9.62132 16.6458 10.125 16.1701 10.125 15.5833C10.125 14.9965 9.62132 14.5208 9 14.5208C8.37868 14.5208 7.875 14.9965 7.875 15.5833C7.875 16.1701 8.37868 16.6458 9 16.6458Z" fill="#2835AC"/>
<path d="M9.75 15.9375H8.25C7.425 15.9375 6.75 15.3 6.75 14.5208V12.75H11.25V14.5208C11.25 15.3 10.575 15.9375 9.75 15.9375Z" fill="#616CD1"/>
<path d="M11.25 14.5209L6.89996 15.0875C7.01246 15.3355 7.23746 15.5834 7.49996 15.725L11.025 15.2646C11.175 15.0521 11.25 14.8042 11.25 14.5209Z" fill="#2835AC"/>
<path d="M6.75 13.7063V14.4146L11.25 13.8125V13.1042L6.75 13.7063Z" fill="#2835AC"/>
</svg>
